<svg width="61" height="68" viewBox="0 0 61 68" fill="none" xmlns="http://www.w3.org/2000/svg">
<rect width="60.9583" height="67.9688" rx="12.1917" fill="white"/>
<g clip-path="url(#clip0_3160_914)">
<path d="M20.3186 42.4656H22.8585V45.2976H38.0981V22.6414H22.8585V25.4734H20.3186V21.2253C20.3186 20.8498 20.4524 20.4896 20.6905 20.2241C20.9287 19.9585 21.2517 19.8093 21.5885 19.8093H39.3681C39.7049 19.8093 40.0279 19.9585 40.2661 20.2241C40.5042 20.4896 40.638 20.8498 40.638 21.2253V46.7136C40.638 47.0892 40.5042 47.4493 40.2661 47.7149C40.0279 47.9805 39.7049 48.1296 39.3681 48.1296H21.5885C21.2517 48.1296 20.9287 47.9805 20.6905 47.7149C20.4524 47.4493 20.3186 47.0892 20.3186 46.7136V42.4656ZM22.8585 32.5535H31.7483V35.3855H22.8585V39.6335L16.5087 33.9695L22.8585 28.3054V32.5535Z" fill="#707070"/>
</g>
<defs>
<clipPath id="clip0_3160_914">
<rect width="30.4792" height="33.9844" fill="white" transform="translate(15.2383 16.9864)"/>
</clipPath>
</defs>
</svg>
