<svg width="61" height="68" viewBox="0 0 61 68" fill="none" xmlns="http://www.w3.org/2000/svg">
<rect width="60.9583" height="67.9688" rx="12.1917" fill="white"/>
<g clip-path="url(#clip0_3160_899)">
<path d="M30.4781 48.1303C23.4641 48.1303 17.7784 41.7908 17.7784 33.9702C17.7784 27.6292 21.5159 22.2625 26.6682 20.4585V23.4661C24.485 24.4546 22.6777 26.2581 21.5554 28.5682C20.4331 30.8783 20.0655 33.5514 20.5155 36.1304C20.9656 38.7093 22.2053 41.0337 24.0225 42.706C25.8398 44.3784 28.1218 45.2947 30.4781 45.2983C32.5021 45.2982 34.4801 44.6243 36.1584 43.3629C37.8368 42.1015 39.1392 40.3101 39.8987 38.2182H42.5961C40.9781 43.963 36.165 48.1303 30.4781 48.1303ZM43.1142 35.3862H29.2081V19.8808C29.6259 19.8341 30.0501 19.81 30.4781 19.81C37.4921 19.81 43.1777 26.1495 43.1777 33.9702C43.1777 34.4474 43.1561 34.9203 43.1142 35.3862ZM31.748 22.7298V32.5541H40.5591C40.2764 30.0586 39.2572 27.7387 37.662 25.9601C36.0668 24.1814 33.9862 23.045 31.748 22.7298Z" fill="#707070"/>
</g>
<defs>
<clipPath id="clip0_3160_899">
<rect width="30.4792" height="33.9844" fill="white" transform="translate(15.2383 16.9864)"/>
</clipPath>
</defs>
</svg>
