<svg width="61" height="68" viewBox="0 0 61 68" fill="none" xmlns="http://www.w3.org/2000/svg">
<rect width="60.9583" height="67.9688" rx="12.1917" fill="white"/>
<g clip-path="url(#clip0_3160_894)">
<path d="M36.8279 21.2313H41.9078C42.2446 21.2313 42.5676 21.3805 42.8058 21.6461C43.0439 21.9116 43.1777 22.2718 43.1777 22.6473V45.3036C43.1777 45.6791 43.0439 46.0393 42.8058 46.3049C42.5676 46.5704 42.2446 46.7196 41.9078 46.7196H19.0484C18.7116 46.7196 18.3886 46.5704 18.1504 46.3049C17.9122 46.0393 17.7784 45.6791 17.7784 45.3036V22.6473C17.7784 22.2718 17.9122 21.9116 18.1504 21.6461C18.3886 21.3805 18.7116 21.2313 19.0484 21.2313H24.1282V18.3993H26.6682V21.2313H34.288V18.3993H36.8279V21.2313ZM20.3184 29.7274V43.8876H40.6378V29.7274H20.3184ZM22.8583 35.3915H29.2081V41.0555H22.8583V35.3915Z" fill="#707070"/>
</g>
<defs>
<clipPath id="clip0_3160_894">
<rect width="30.4792" height="33.9844" fill="white" transform="translate(15.2383 16.9864)"/>
</clipPath>
</defs>
</svg>
