<svg width="61" height="68" viewBox="0 0 61 68" fill="none" xmlns="http://www.w3.org/2000/svg">
<rect width="60.9583" height="67.9688" rx="12.1917" fill="white"/>
<g clip-path="url(#clip0_3160_909)">
<path d="M19.7637 42.6614C19.191 41.5573 18.7459 40.3769 18.4388 39.1482C19.1071 38.7692 19.6683 38.1915 20.0604 37.479C20.4525 36.7665 20.6601 35.947 20.6604 35.111C20.6607 34.2751 20.4536 33.4554 20.062 32.7425C19.6704 32.0297 19.1096 31.4515 18.4416 31.072C19.0539 28.6032 20.2198 26.3489 21.8295 24.5213C22.4582 24.9771 23.1877 25.23 23.9373 25.252C24.6869 25.2741 25.4273 25.0645 26.0767 24.6464C26.7261 24.2284 27.259 23.6181 27.6166 22.8832C27.9742 22.1483 28.1425 21.3174 28.1028 20.4825C30.3272 19.8415 32.6614 19.8425 34.8854 20.4855C34.8461 21.3204 35.0146 22.1512 35.3725 22.8859C35.7304 23.6206 36.2635 24.2305 36.9131 24.6483C37.5626 25.0661 38.3031 25.2753 39.0526 25.2529C39.8022 25.2305 40.5316 24.9773 41.1601 24.5213C41.9444 25.4125 42.6407 26.426 43.2259 27.5573C43.8124 28.6886 44.2513 29.8682 44.5507 31.0705C43.8824 31.4495 43.3212 32.0272 42.9292 32.7397C42.5371 33.4522 42.3294 34.2717 42.3291 35.1077C42.3289 35.9436 42.536 36.7633 42.9276 37.4762C43.3192 38.189 43.88 38.7672 44.548 39.1467C43.9356 41.6155 42.7697 43.8698 41.1601 45.6974C40.5314 45.2416 39.8019 44.9887 39.0523 44.9667C38.3027 44.9446 37.5622 45.1542 36.9128 45.5723C36.2635 45.9903 35.7305 46.6006 35.3729 47.3355C35.0153 48.0704 34.8471 48.9013 34.8868 49.7362C32.6623 50.3772 30.3281 50.3762 28.1041 49.7332C28.1435 48.8983 27.9749 48.0675 27.617 47.3328C27.2592 46.5981 26.726 45.9882 26.0765 45.5704C25.427 45.1526 24.6865 44.9434 23.9369 44.9658C23.1874 44.9882 22.458 45.2414 21.8295 45.6974C21.0289 44.7865 20.3348 43.7664 19.7637 42.6614ZM27.4309 42.9575C28.8744 43.8858 29.9598 45.3757 30.4788 47.1413C31.1548 47.2123 31.8334 47.2138 32.5094 47.1428C33.0288 45.3769 34.1146 43.887 35.5587 42.959C37.0016 42.0281 38.7021 41.7242 40.3337 42.1056C40.7266 41.4894 41.0652 40.8323 41.347 40.1451C40.2354 38.7607 39.6213 36.9675 39.6225 35.1094C39.6225 33.2062 40.2592 31.4285 41.347 30.0736C41.0632 29.3866 40.7231 28.7303 40.331 28.1131C38.7004 28.4942 37.0011 28.1909 35.5587 27.2612C34.1151 26.3329 33.0298 24.843 32.5107 23.0774C31.8348 23.0064 31.1561 23.0049 30.4801 23.0759C29.9608 24.8418 28.8749 26.3317 27.4309 27.2597C25.9879 28.1906 24.2874 28.4945 22.6558 28.1131C22.2637 28.7298 21.9245 29.3862 21.6425 30.0736C22.7541 31.458 23.3682 33.2512 23.367 35.1094C23.367 37.0125 22.7303 38.7902 21.6425 40.1451C21.9263 40.8321 22.2664 41.4884 22.6585 42.1056C24.2891 41.7245 25.9885 42.0278 27.4309 42.9575ZM31.4948 39.6406C30.417 39.6406 29.3833 39.1632 28.6212 38.3134C27.859 37.4637 27.4309 36.3111 27.4309 35.1094C27.4309 33.9076 27.859 32.755 28.6212 31.9053C29.3833 31.0555 30.417 30.5781 31.4948 30.5781C32.5726 30.5781 33.6062 31.0555 34.3684 31.9053C35.1305 32.755 35.5587 33.9076 35.5587 35.1094C35.5587 36.3111 35.1305 37.4637 34.3684 38.3134C33.6062 39.1632 32.5726 39.6406 31.4948 39.6406ZM31.4948 36.6198C31.854 36.6198 32.1986 36.4606 32.4526 36.1774C32.7067 35.8941 32.8494 35.5099 32.8494 35.1094C32.8494 34.7088 32.7067 34.3246 32.4526 34.0413C32.1986 33.7581 31.854 33.5989 31.4948 33.5989C31.1355 33.5989 30.7909 33.7581 30.5369 34.0413C30.2829 34.3246 30.1401 34.7088 30.1401 35.1094C30.1401 35.5099 30.2829 35.8941 30.5369 36.1774C30.7909 36.4606 31.1355 36.6198 31.4948 36.6198Z" fill="#707070"/>
</g>
<defs>
<clipPath id="clip0_3160_909">
<rect width="32.5111" height="36.25" fill="white" transform="translate(15.2383 16.9864)"/>
</clipPath>
</defs>
</svg>
