<svg width="61" height="68" viewBox="0 0 61 68" fill="none" xmlns="http://www.w3.org/2000/svg">
<rect width="60.9583" height="67.9688" rx="12.1917" fill="white"/>
<g clip-path="url(#clip0_3160_904)">
<path d="M17.7784 29.7181C17.7778 28.6025 17.9744 27.4978 18.3572 26.4672C18.74 25.4365 19.3014 24.5002 20.0092 23.7118C20.717 22.9234 21.5573 22.2984 22.482 21.8726C23.4068 21.4468 24.3977 21.2286 25.3982 21.2305H35.5579C39.7653 21.2305 43.1777 25.0466 43.1777 29.7181V46.7188H25.3982C21.1908 46.7188 17.7784 42.9026 17.7784 38.2312V29.7181ZM40.6378 43.8867V29.7181C40.6344 28.2178 40.0979 26.7802 39.1458 25.7201C38.1936 24.6601 36.9035 24.064 35.5579 24.0625H25.3982C24.7313 24.0606 24.0706 24.2056 23.454 24.4891C22.8374 24.7725 22.2771 25.1889 21.8052 25.7143C21.3332 26.2397 20.959 26.8639 20.7038 27.5509C20.4487 28.238 20.3177 28.9745 20.3184 29.7181V38.2312C20.3217 39.7314 20.8582 41.1691 21.8104 42.2291C22.7625 43.2892 24.0527 43.8852 25.3982 43.8867H40.6378ZM33.018 32.5586H35.5579V35.3906H33.018V32.5586ZM25.3982 32.5586H27.9381V35.3906H25.3982V32.5586Z" fill="#707070"/>
</g>
<defs>
<clipPath id="clip0_3160_904">
<rect width="30.4792" height="33.9844" fill="white" transform="translate(15.2383 16.9864)"/>
</clipPath>
</defs>
</svg>
