<svg width="295" height="212" viewBox="0 0 295 212" fill="none" xmlns="http://www.w3.org/2000/svg">
<circle cx="18.4761" cy="7.44577" r="5.01666" fill="#989191"/>
<path d="M34.6791 3.18941H36.5304V8.87592C36.5304 9.5144 36.3779 10.0731 36.0729 10.5519C35.7708 11.0308 35.3475 11.4042 34.8031 11.6721C34.2587 11.9372 33.6245 12.0698 32.9005 12.0698C32.1736 12.0698 31.538 11.9372 30.9936 11.6721C30.4491 11.4042 30.0259 11.0308 29.7237 10.5519C29.4216 10.0731 29.2705 9.5144 29.2705 8.87592V3.18941H31.1218V8.71772C31.1218 9.05121 31.1945 9.34765 31.3399 9.60704C31.4881 9.86642 31.6962 10.0702 31.9641 10.2184C32.2321 10.3667 32.5442 10.4408 32.9005 10.4408C33.2596 10.4408 33.5717 10.3667 33.8368 10.2184C34.1047 10.0702 34.3114 9.86642 34.4568 9.60704C34.605 9.34765 34.6791 9.05121 34.6791 8.71772V3.18941ZM43.4836 7.2512L41.8161 7.35381C41.7876 7.2113 41.7263 7.08303 41.6322 6.96901C41.5382 6.85215 41.4142 6.75951 41.2603 6.6911C41.1092 6.61984 40.9282 6.58421 40.7173 6.58421C40.4351 6.58421 40.1971 6.64407 40.0032 6.76379C39.8094 6.88065 39.7125 7.03742 39.7125 7.2341C39.7125 7.39087 39.7752 7.52341 39.9006 7.63173C40.026 7.74004 40.2413 7.82698 40.5462 7.89254L41.7348 8.13197C42.3733 8.26308 42.8493 8.47401 43.1629 8.76475C43.4764 9.05549 43.6332 9.43744 43.6332 9.9106C43.6332 10.341 43.5064 10.7187 43.2527 11.0436C43.0018 11.3686 42.6569 11.6223 42.218 11.8047C41.7819 11.9843 41.2788 12.074 40.7087 12.074C39.8393 12.074 39.1467 11.893 38.6308 11.531C38.1177 11.1662 37.817 10.6702 37.7286 10.0431L39.5201 9.94908C39.5743 10.2142 39.7054 10.4165 39.9135 10.5562C40.1215 10.693 40.388 10.7614 40.713 10.7614C41.0322 10.7614 41.2888 10.7002 41.4826 10.5776C41.6793 10.4522 41.779 10.2911 41.7819 10.0945C41.779 9.92913 41.7092 9.79374 41.5724 9.68827C41.4356 9.57996 41.2246 9.4973 40.9396 9.44029L39.8023 9.21368C39.161 9.08542 38.6835 8.86309 38.37 8.5467C38.0593 8.2303 37.9039 7.82698 37.9039 7.33671C37.9039 6.91486 38.018 6.55143 38.246 6.24644C38.4769 5.94145 38.8004 5.7063 39.2165 5.54097C39.6355 5.37565 40.1258 5.29299 40.6873 5.29299C41.5168 5.29299 42.1695 5.46829 42.6455 5.81889C43.1244 6.16948 43.4037 6.64692 43.4836 7.2512ZM47.773 12.074C47.0975 12.074 46.516 11.9372 46.0286 11.6636C45.544 11.3871 45.1706 10.9966 44.9084 10.4921C44.6462 9.98471 44.515 9.38471 44.515 8.69207C44.515 8.01653 44.6462 7.42365 44.9084 6.91343C45.1706 6.40321 45.5397 6.00559 46.0158 5.72055C46.4946 5.43551 47.0561 5.29299 47.7003 5.29299C48.1336 5.29299 48.5369 5.36283 48.9103 5.5025C49.2866 5.63931 49.6144 5.84597 49.8937 6.12245C50.1759 6.39894 50.3954 6.74668 50.5521 7.16569C50.7089 7.58184 50.7873 8.06926 50.7873 8.62793V9.12817H45.2419V7.99942H49.0728C49.0728 7.73719 49.0158 7.50488 48.9018 7.30251C48.7877 7.10013 48.6296 6.94193 48.4272 6.82792C48.2276 6.71105 47.9953 6.65262 47.7303 6.65262C47.4538 6.65262 47.2086 6.71676 46.9949 6.84502C46.7839 6.97044 46.6186 7.14004 46.4989 7.35381C46.3792 7.56474 46.3179 7.7999 46.315 8.05928V9.13245C46.315 9.45739 46.3749 9.73815 46.4946 9.97474C46.6172 10.2113 46.7896 10.3937 47.012 10.522C47.2343 10.6503 47.498 10.7144 47.8029 10.7144C48.0053 10.7144 48.1906 10.6859 48.3588 10.6289C48.5269 10.5719 48.6709 10.4864 48.7906 10.3724C48.9103 10.2583 49.0015 10.1187 49.0642 9.95336L50.7488 10.0645C50.6633 10.4693 50.488 10.8227 50.2229 11.1249C49.9607 11.4242 49.6215 11.6579 49.2053 11.8261C48.792 11.9914 48.3146 12.074 47.773 12.074ZM54.3959 12.0527C53.897 12.0527 53.4453 11.9244 53.0405 11.6679C52.6386 11.4085 52.3194 11.0279 52.0828 10.5263C51.8491 10.0218 51.7322 9.40323 51.7322 8.67069C51.7322 7.91819 51.8533 7.29253 52.0956 6.79372C52.3379 6.29205 52.66 5.91722 53.0619 5.66924C53.4666 5.41841 53.9099 5.29299 54.3916 5.29299C54.7593 5.29299 55.0657 5.3557 55.3108 5.48112C55.5588 5.60368 55.7583 5.7576 55.9094 5.94288C56.0633 6.1253 56.1802 6.30488 56.26 6.4816H56.3156V3.18941H58.1327V11.9458H56.337V10.894H56.26C56.1745 11.0764 56.0534 11.2574 55.8966 11.437C55.7427 11.6137 55.5417 11.7605 55.2937 11.8774C55.0486 11.9942 54.7493 12.0527 54.3959 12.0527ZM54.9731 10.6032C55.2667 10.6032 55.5146 10.5234 55.717 10.3638C55.9222 10.2013 56.079 9.97474 56.1873 9.684C56.2985 9.39326 56.3541 9.05264 56.3541 8.66214C56.3541 8.27164 56.2999 7.93244 56.1916 7.64455C56.0833 7.35666 55.9265 7.13434 55.7213 6.97756C55.5161 6.82079 55.2667 6.74241 54.9731 6.74241C54.6738 6.74241 54.4215 6.82364 54.2163 6.98612C54.0111 7.14859 53.8557 7.37377 53.7503 7.66165C53.6448 7.94954 53.5921 8.28304 53.5921 8.66214C53.5921 9.04409 53.6448 9.38186 53.7503 9.67545C53.8586 9.96618 54.0139 10.1942 54.2163 10.3595C54.4215 10.522 54.6738 10.6032 54.9731 10.6032ZM62.1175 4.71579V3.18941H69.309V4.71579H66.6283V11.9458H64.7983V4.71579H62.1175ZM72.474 12.074C71.8099 12.074 71.2355 11.9329 70.751 11.6508C70.2693 11.3657 69.8973 10.9695 69.635 10.4621C69.3728 9.95193 69.2417 9.36048 69.2417 8.68779C69.2417 8.0094 69.3728 7.41652 69.635 6.90916C69.8973 6.39894 70.2693 6.00274 70.751 5.72055C71.2355 5.43551 71.8099 5.29299 72.474 5.29299C73.1382 5.29299 73.7111 5.43551 74.1928 5.72055C74.6774 6.00274 75.0508 6.39894 75.313 6.90916C75.5752 7.41652 75.7063 8.0094 75.7063 8.68779C75.7063 9.36048 75.5752 9.95193 75.313 10.4621C75.0508 10.9695 74.6774 11.3657 74.1928 11.6508C73.7111 11.9329 73.1382 12.074 72.474 12.074ZM72.4826 10.6631C72.7847 10.6631 73.037 10.5776 73.2393 10.4066C73.4417 10.2327 73.5942 9.99611 73.6968 9.69682C73.8023 9.39753 73.855 9.05691 73.855 8.67496C73.855 8.29301 73.8023 7.95239 73.6968 7.6531C73.5942 7.35381 73.4417 7.11723 73.2393 6.94336C73.037 6.76949 72.7847 6.68255 72.4826 6.68255C72.1776 6.68255 71.921 6.76949 71.713 6.94336C71.5077 7.11723 71.3524 7.35381 71.2469 7.6531C71.1443 7.95239 71.093 8.29301 71.093 8.67496C71.093 9.05691 71.1443 9.39753 71.2469 9.69682C71.3524 9.99611 71.5077 10.2327 71.713 10.4066C71.921 10.5776 72.1776 10.6631 72.4826 10.6631ZM79.3106 12.0527C78.8118 12.0527 78.36 11.9244 77.9553 11.6679C77.5534 11.4085 77.2341 11.0279 76.9976 10.5263C76.7638 10.0218 76.647 9.40323 76.647 8.67069C76.647 7.91819 76.7681 7.29253 77.0104 6.79372C77.2527 6.29205 77.5748 5.91722 77.9767 5.66924C78.3814 5.41841 78.8247 5.29299 79.3064 5.29299C79.6741 5.29299 79.9805 5.3557 80.2256 5.48112C80.4736 5.60368 80.6731 5.7576 80.8242 5.94288C80.9781 6.1253 81.095 6.30488 81.1748 6.4816H81.2304V3.18941H83.0475V11.9458H81.2518V10.894H81.1748C81.0893 11.0764 80.9681 11.2574 80.8114 11.437C80.6574 11.6137 80.4565 11.7605 80.2085 11.8774C79.9634 11.9942 79.6641 12.0527 79.3106 12.0527ZM79.8878 10.6032C80.1814 10.6032 80.4294 10.5234 80.6318 10.3638C80.837 10.2013 80.9938 9.97474 81.1021 9.684C81.2133 9.39326 81.2689 9.05264 81.2689 8.66214C81.2689 8.27164 81.2147 7.93244 81.1064 7.64455C80.9981 7.35666 80.8413 7.13434 80.6361 6.97756C80.4308 6.82079 80.1814 6.74241 79.8878 6.74241C79.5886 6.74241 79.3363 6.82364 79.1311 6.98612C78.9258 7.14859 78.7705 7.37377 78.665 7.66165C78.5596 7.94954 78.5068 8.28304 78.5068 8.66214C78.5068 9.04409 78.5596 9.38186 78.665 9.67545C78.7733 9.96618 78.9287 10.1942 79.1311 10.3595C79.3363 10.522 79.5886 10.6032 79.8878 10.6032ZM86.4177 12.0698C85.9987 12.0698 85.6253 11.9971 85.2975 11.8517C84.9697 11.7035 84.7103 11.4854 84.5193 11.1975C84.3312 10.9068 84.2372 10.5448 84.2372 10.1116C84.2372 9.74671 84.3041 9.44029 84.4381 9.19231C84.5721 8.94432 84.7545 8.7448 84.9854 8.59373C85.2163 8.44266 85.4785 8.32864 85.7721 8.25168C86.0685 8.17472 86.3792 8.12057 86.7042 8.08921C87.0861 8.04931 87.394 8.01225 87.6277 7.97805C87.8614 7.94099 88.031 7.88683 88.1365 7.81558C88.2419 7.74432 88.2947 7.63885 88.2947 7.49918V7.47353C88.2947 7.20274 88.2092 6.99324 88.0381 6.84502C87.87 6.6968 87.6305 6.62269 87.3198 6.62269C86.9921 6.62269 86.7312 6.69538 86.5374 6.84075C86.3436 6.98327 86.2153 7.16284 86.1526 7.37947L84.468 7.24265C84.5536 6.8436 84.7217 6.4987 84.9726 6.20796C85.2234 5.91437 85.5469 5.68919 85.9431 5.53242C86.3422 5.3728 86.8039 5.29299 87.3284 5.29299C87.6932 5.29299 88.0424 5.33575 88.3759 5.42126C88.7123 5.50677 89.0101 5.63931 89.2695 5.81889C89.5317 5.99846 89.7384 6.22934 89.8895 6.51153C90.0405 6.79086 90.1161 7.12578 90.1161 7.51629V11.9458H88.3887V11.0351H88.3374C88.232 11.2403 88.0909 11.4213 87.9141 11.5781C87.7374 11.732 87.5251 11.8531 87.2771 11.9415C87.0291 12.027 86.7426 12.0698 86.4177 12.0698ZM86.9393 10.8127C87.2073 10.8127 87.4438 10.76 87.6491 10.6545C87.8543 10.5462 88.0153 10.4009 88.1322 10.2184C88.2491 10.036 88.3075 9.82937 88.3075 9.59849V8.90157C88.2505 8.93862 88.1721 8.97283 88.0723 9.00418C87.9754 9.03269 87.8657 9.05976 87.7431 9.08542C87.6206 9.10822 87.498 9.1296 87.3754 9.14955C87.2529 9.16665 87.1417 9.18233 87.0419 9.19658C86.8282 9.22794 86.6415 9.27782 86.4818 9.34623C86.3222 9.41464 86.1982 9.50727 86.1099 9.62414C86.0215 9.73815 85.9773 9.88067 85.9773 10.0517C85.9773 10.2997 86.0671 10.4892 86.2467 10.6203C86.4291 10.7486 86.66 10.8127 86.9393 10.8127ZM92.4185 14.4085C92.1876 14.4085 91.9709 14.39 91.7686 14.3529C91.569 14.3187 91.4037 14.2745 91.2726 14.2204L91.6831 12.8607C91.8968 12.9263 92.0892 12.9619 92.2603 12.9676C92.4341 12.9733 92.5838 12.9334 92.7092 12.8479C92.8375 12.7624 92.9415 12.617 93.0213 12.4118L93.1282 12.1339L90.7724 5.3785H92.6878L94.0474 10.2013H94.1159L95.4883 5.3785H97.4166L94.8641 12.6555C94.7415 13.009 94.5748 13.3168 94.3638 13.579C94.1558 13.8441 93.8921 14.0479 93.5729 14.1904C93.2536 14.3358 92.8688 14.4085 92.4185 14.4085Z" fill="#767676"/>
<circle cx="158.406" cy="7.44577" r="5.01666" fill="#D0C5A6"/>
<path d="M174.609 3.18941H176.461V8.87592C176.461 9.5144 176.308 10.0731 176.003 10.5519C175.701 11.0308 175.278 11.4042 174.733 11.6721C174.189 11.9372 173.555 12.0698 172.831 12.0698C172.104 12.0698 171.468 11.9372 170.924 11.6721C170.379 11.4042 169.956 11.0308 169.654 10.5519C169.352 10.0731 169.201 9.5144 169.201 8.87592V3.18941H171.052V8.71772C171.052 9.05121 171.125 9.34765 171.27 9.60704C171.418 9.86642 171.626 10.0702 171.894 10.2184C172.162 10.3667 172.474 10.4408 172.831 10.4408C173.19 10.4408 173.502 10.3667 173.767 10.2184C174.035 10.0702 174.242 9.86642 174.387 9.60704C174.535 9.34765 174.609 9.05121 174.609 8.71772V3.18941ZM183.414 7.2512L181.746 7.35381C181.718 7.2113 181.656 7.08303 181.562 6.96901C181.468 6.85215 181.344 6.75951 181.19 6.6911C181.039 6.61984 180.858 6.58421 180.647 6.58421C180.365 6.58421 180.127 6.64407 179.933 6.76379C179.74 6.88065 179.643 7.03742 179.643 7.2341C179.643 7.39087 179.705 7.52341 179.831 7.63173C179.956 7.74004 180.171 7.82698 180.476 7.89254L181.665 8.13197C182.304 8.26308 182.78 8.47401 183.093 8.76475C183.407 9.05549 183.563 9.43744 183.563 9.9106C183.563 10.341 183.437 10.7187 183.183 11.0436C182.932 11.3686 182.587 11.6223 182.148 11.8047C181.712 11.9843 181.209 12.074 180.639 12.074C179.77 12.074 179.077 11.893 178.561 11.531C178.048 11.1662 177.747 10.6702 177.659 10.0431L179.45 9.94908C179.504 10.2142 179.636 10.4165 179.844 10.5562C180.052 10.693 180.318 10.7614 180.643 10.7614C180.962 10.7614 181.219 10.7002 181.413 10.5776C181.609 10.4522 181.709 10.2911 181.712 10.0945C181.709 9.92913 181.639 9.79374 181.503 9.68827C181.366 9.57996 181.155 9.4973 180.87 9.44029L179.732 9.21368C179.091 9.08542 178.614 8.86309 178.3 8.5467C177.989 8.2303 177.834 7.82698 177.834 7.33671C177.834 6.91486 177.948 6.55143 178.176 6.24644C178.407 5.94145 178.731 5.7063 179.147 5.54097C179.566 5.37565 180.056 5.29299 180.618 5.29299C181.447 5.29299 182.1 5.46829 182.576 5.81889C183.055 6.16948 183.334 6.64692 183.414 7.2512ZM187.703 12.074C187.028 12.074 186.446 11.9372 185.959 11.6636C185.474 11.3871 185.101 10.9966 184.839 10.4921C184.576 9.98471 184.445 9.38471 184.445 8.69207C184.445 8.01653 184.576 7.42365 184.839 6.91343C185.101 6.40321 185.47 6.00559 185.946 5.72055C186.425 5.43551 186.986 5.29299 187.631 5.29299C188.064 5.29299 188.467 5.36283 188.84 5.5025C189.217 5.63931 189.545 5.84597 189.824 6.12245C190.106 6.39894 190.326 6.74668 190.482 7.16569C190.639 7.58184 190.717 8.06926 190.717 8.62793V9.12817H185.172V7.99942H189.003C189.003 7.73719 188.946 7.50488 188.832 7.30251C188.718 7.10013 188.56 6.94193 188.357 6.82792C188.158 6.71105 187.926 6.65262 187.66 6.65262C187.384 6.65262 187.139 6.71676 186.925 6.84502C186.714 6.97044 186.549 7.14004 186.429 7.35381C186.309 7.56474 186.248 7.7999 186.245 8.05928V9.13245C186.245 9.45739 186.305 9.73815 186.425 9.97474C186.547 10.2113 186.72 10.3937 186.942 10.522C187.164 10.6503 187.428 10.7144 187.733 10.7144C187.935 10.7144 188.121 10.6859 188.289 10.6289C188.457 10.5719 188.601 10.4864 188.721 10.3724C188.84 10.2583 188.932 10.1187 188.994 9.95336L190.679 10.0645C190.593 10.4693 190.418 10.8227 190.153 11.1249C189.891 11.4242 189.552 11.6579 189.136 11.8261C188.722 11.9914 188.245 12.074 187.703 12.074ZM194.326 12.0527C193.827 12.0527 193.375 11.9244 192.971 11.6679C192.569 11.4085 192.25 11.0279 192.013 10.5263C191.779 10.0218 191.662 9.40323 191.662 8.67069C191.662 7.91819 191.784 7.29253 192.026 6.79372C192.268 6.29205 192.59 5.91722 192.992 5.66924C193.397 5.41841 193.84 5.29299 194.322 5.29299C194.689 5.29299 194.996 5.3557 195.241 5.48112C195.489 5.60368 195.689 5.7576 195.84 5.94288C195.994 6.1253 196.11 6.30488 196.19 6.4816H196.246V3.18941H198.063V11.9458H196.267V10.894H196.19C196.105 11.0764 195.984 11.2574 195.827 11.437C195.673 11.6137 195.472 11.7605 195.224 11.8774C194.979 11.9942 194.679 12.0527 194.326 12.0527ZM194.903 10.6032C195.197 10.6032 195.445 10.5234 195.647 10.3638C195.852 10.2013 196.009 9.97474 196.118 9.684C196.229 9.39326 196.284 9.05264 196.284 8.66214C196.284 8.27164 196.23 7.93244 196.122 7.64455C196.013 7.35666 195.857 7.13434 195.651 6.97756C195.446 6.82079 195.197 6.74241 194.903 6.74241C194.604 6.74241 194.352 6.82364 194.146 6.98612C193.941 7.14859 193.786 7.37377 193.68 7.66165C193.575 7.94954 193.522 8.28304 193.522 8.66214C193.522 9.04409 193.575 9.38186 193.68 9.67545C193.789 9.96618 193.944 10.1942 194.146 10.3595C194.352 10.522 194.604 10.6032 194.903 10.6032ZM201.868 3.18941H203.942L205.938 6.96046H206.024L208.021 3.18941H210.094L206.9 8.85026V11.9458H205.062V8.85026L201.868 3.18941ZM212.689 12.074C212.013 12.074 211.432 11.9372 210.944 11.6636C210.46 11.3871 210.086 10.9966 209.824 10.4921C209.562 9.98471 209.431 9.38471 209.431 8.69207C209.431 8.01653 209.562 7.42365 209.824 6.91343C210.086 6.40321 210.455 6.00559 210.931 5.72055C211.41 5.43551 211.972 5.29299 212.616 5.29299C213.049 5.29299 213.452 5.36283 213.826 5.5025C214.202 5.63931 214.53 5.84597 214.809 6.12245C215.091 6.39894 215.311 6.74668 215.468 7.16569C215.624 7.58184 215.703 8.06926 215.703 8.62793V9.12817H210.157V7.99942H213.988C213.988 7.73719 213.931 7.50488 213.817 7.30251C213.703 7.10013 213.545 6.94193 213.343 6.82792C213.143 6.71105 212.911 6.65262 212.646 6.65262C212.369 6.65262 212.124 6.71676 211.91 6.84502C211.699 6.97044 211.534 7.14004 211.414 7.35381C211.295 7.56474 211.233 7.7999 211.231 8.05928V9.13245C211.231 9.45739 211.29 9.73815 211.41 9.97474C211.533 10.2113 211.705 10.3937 211.927 10.522C212.15 10.6503 212.413 10.7144 212.718 10.7144C212.921 10.7144 213.106 10.6859 213.274 10.6289C213.442 10.5719 213.586 10.4864 213.706 10.3724C213.826 10.2583 213.917 10.1187 213.98 9.95336L215.664 10.0645C215.579 10.4693 215.404 10.8227 215.138 11.1249C214.876 11.4242 214.537 11.6579 214.121 11.8261C213.708 11.9914 213.23 12.074 212.689 12.074ZM222.356 7.2512L220.688 7.35381C220.66 7.2113 220.598 7.08303 220.504 6.96901C220.41 6.85215 220.286 6.75951 220.132 6.6911C219.981 6.61984 219.8 6.58421 219.589 6.58421C219.307 6.58421 219.069 6.64407 218.875 6.76379C218.681 6.88065 218.585 7.03742 218.585 7.2341C218.585 7.39087 218.647 7.52341 218.773 7.63173C218.898 7.74004 219.113 7.82698 219.418 7.89254L220.607 8.13197C221.245 8.26308 221.721 8.47401 222.035 8.76475C222.348 9.05549 222.505 9.43744 222.505 9.9106C222.505 10.341 222.378 10.7187 222.125 11.0436C221.874 11.3686 221.529 11.6223 221.09 11.8047C220.654 11.9843 220.151 12.074 219.581 12.074C218.711 12.074 218.019 11.893 217.503 11.531C216.99 11.1662 216.689 10.6702 216.601 10.0431L218.392 9.94908C218.446 10.2142 218.577 10.4165 218.785 10.5562C218.994 10.693 219.26 10.7614 219.585 10.7614C219.904 10.7614 220.161 10.7002 220.355 10.5776C220.551 10.4522 220.651 10.2911 220.654 10.0945C220.651 9.92913 220.581 9.79374 220.444 9.68827C220.308 9.57996 220.097 9.4973 219.812 9.44029L218.674 9.21368C218.033 9.08542 217.556 8.86309 217.242 8.5467C216.931 8.2303 216.776 7.82698 216.776 7.33671C216.776 6.91486 216.89 6.55143 217.118 6.24644C217.349 5.94145 217.672 5.7063 218.089 5.54097C218.508 5.37565 218.998 5.29299 219.559 5.29299C220.389 5.29299 221.042 5.46829 221.518 5.81889C221.996 6.16948 222.276 6.64692 222.356 7.2512ZM227.145 5.3785V6.74668H223.19V5.3785H227.145ZM224.088 3.8051H225.91V9.9277C225.91 10.0959 225.935 10.227 225.987 10.3211C226.038 10.4123 226.109 10.4764 226.2 10.5135C226.294 10.5505 226.403 10.569 226.525 10.569C226.611 10.569 226.696 10.5619 226.782 10.5477C226.867 10.5306 226.933 10.5177 226.979 10.5092L227.265 11.8645C227.174 11.893 227.046 11.9258 226.88 11.9629C226.715 12.0028 226.514 12.027 226.277 12.0356C225.838 12.0527 225.454 11.9942 225.123 11.8603C224.795 11.7263 224.54 11.5182 224.358 11.236C224.175 10.9538 224.085 10.5975 224.088 10.1671V3.8051ZM231.254 12.074C230.579 12.074 229.997 11.9372 229.51 11.6636C229.025 11.3871 228.652 10.9966 228.389 10.4921C228.127 9.98471 227.996 9.38471 227.996 8.69207C227.996 8.01653 228.127 7.42365 228.389 6.91343C228.652 6.40321 229.021 6.00559 229.497 5.72055C229.976 5.43551 230.537 5.29299 231.181 5.29299C231.615 5.29299 232.018 5.36283 232.391 5.5025C232.768 5.63931 233.095 5.84597 233.375 6.12245C233.657 6.39894 233.876 6.74668 234.033 7.16569C234.19 7.58184 234.268 8.06926 234.268 8.62793V9.12817H228.723V7.99942H232.554C232.554 7.73719 232.497 7.50488 232.383 7.30251C232.269 7.10013 232.111 6.94193 231.908 6.82792C231.709 6.71105 231.476 6.65262 231.211 6.65262C230.935 6.65262 230.69 6.71676 230.476 6.84502C230.265 6.97044 230.1 7.14004 229.98 7.35381C229.86 7.56474 229.799 7.7999 229.796 8.05928V9.13245C229.796 9.45739 229.856 9.73815 229.976 9.97474C230.098 10.2113 230.271 10.3937 230.493 10.522C230.715 10.6503 230.979 10.7144 231.284 10.7144C231.486 10.7144 231.672 10.6859 231.84 10.6289C232.008 10.5719 232.152 10.4864 232.272 10.3724C232.391 10.2583 232.483 10.1187 232.545 9.95336L234.23 10.0645C234.144 10.4693 233.969 10.8227 233.704 11.1249C233.442 11.4242 233.103 11.6579 232.686 11.8261C232.273 11.9914 231.796 12.074 231.254 12.074ZM235.457 11.9458V5.3785H237.223V6.52435H237.291C237.411 6.11675 237.612 5.80891 237.894 5.60083C238.176 5.38991 238.501 5.28444 238.869 5.28444C238.96 5.28444 239.058 5.29014 239.164 5.30154C239.269 5.31295 239.362 5.32862 239.442 5.34857V6.96474C239.356 6.93908 239.238 6.91628 239.087 6.89633C238.936 6.87638 238.798 6.8664 238.672 6.8664C238.404 6.8664 238.165 6.92483 237.954 7.0417C237.746 7.15571 237.58 7.31533 237.458 7.52056C237.338 7.72579 237.278 7.96237 237.278 8.23031V11.9458H235.457ZM242.498 12.0527C241.999 12.0527 241.547 11.9244 241.142 11.6679C240.74 11.4085 240.421 11.0279 240.185 10.5263C239.951 10.0218 239.834 9.40323 239.834 8.67069C239.834 7.91819 239.955 7.29253 240.197 6.79372C240.44 6.29205 240.762 5.91722 241.164 5.66924C241.569 5.41841 242.012 5.29299 242.493 5.29299C242.861 5.29299 243.168 5.3557 243.413 5.48112C243.661 5.60368 243.86 5.7576 244.011 5.94288C244.165 6.1253 244.282 6.30488 244.362 6.4816H244.417V3.18941H246.235V11.9458H244.439V10.894H244.362C244.276 11.0764 244.155 11.2574 243.998 11.437C243.845 11.6137 243.644 11.7605 243.396 11.8774C243.15 11.9942 242.851 12.0527 242.498 12.0527ZM243.075 10.6032C243.369 10.6032 243.617 10.5234 243.819 10.3638C244.024 10.2013 244.181 9.97474 244.289 9.684C244.4 9.39326 244.456 9.05264 244.456 8.66214C244.456 8.27164 244.402 7.93244 244.293 7.64455C244.185 7.35666 244.028 7.13434 243.823 6.97756C243.618 6.82079 243.369 6.74241 243.075 6.74241C242.776 6.74241 242.523 6.82364 242.318 6.98612C242.113 7.14859 241.958 7.37377 241.852 7.66165C241.747 7.94954 241.694 8.28304 241.694 8.66214C241.694 9.04409 241.747 9.38186 241.852 9.67545C241.96 9.96618 242.116 10.1942 242.318 10.3595C242.523 10.522 242.776 10.6032 243.075 10.6032ZM249.605 12.0698C249.186 12.0698 248.812 11.9971 248.485 11.8517C248.157 11.7035 247.897 11.4854 247.706 11.1975C247.518 10.9068 247.424 10.5448 247.424 10.1116C247.424 9.74671 247.491 9.44029 247.625 9.19231C247.759 8.94432 247.942 8.7448 248.172 8.59373C248.403 8.44266 248.666 8.32864 248.959 8.25168C249.256 8.17472 249.566 8.12057 249.891 8.08921C250.273 8.04931 250.581 8.01225 250.815 7.97805C251.049 7.94099 251.218 7.88683 251.324 7.81558C251.429 7.74432 251.482 7.63885 251.482 7.49918V7.47353C251.482 7.20274 251.396 6.99324 251.225 6.84502C251.057 6.6968 250.818 6.62269 250.507 6.62269C250.179 6.62269 249.918 6.69538 249.725 6.84075C249.531 6.98327 249.402 7.16284 249.34 7.37947L247.655 7.24265C247.741 6.8436 247.909 6.4987 248.16 6.20796C248.41 5.91437 248.734 5.68919 249.13 5.53242C249.529 5.3728 249.991 5.29299 250.516 5.29299C250.88 5.29299 251.23 5.33575 251.563 5.42126C251.899 5.50677 252.197 5.63931 252.457 5.81889C252.719 5.99846 252.925 6.22934 253.077 6.51153C253.228 6.79086 253.303 7.12578 253.303 7.51629V11.9458H251.576V11.0351H251.525C251.419 11.2403 251.278 11.4213 251.101 11.5781C250.925 11.732 250.712 11.8531 250.464 11.9415C250.216 12.027 249.93 12.0698 249.605 12.0698ZM250.126 10.8127C250.394 10.8127 250.631 10.76 250.836 10.6545C251.041 10.5462 251.202 10.4009 251.319 10.2184C251.436 10.036 251.495 9.82937 251.495 9.59849V8.90157C251.438 8.93862 251.359 8.97283 251.259 9.00418C251.163 9.03269 251.053 9.05976 250.93 9.08542C250.808 9.10822 250.685 9.1296 250.563 9.14955C250.44 9.16665 250.329 9.18233 250.229 9.19658C250.015 9.22794 249.829 9.27782 249.669 9.34623C249.509 9.41464 249.385 9.50727 249.297 9.62414C249.209 9.73815 249.164 9.88067 249.164 10.0517C249.164 10.2997 249.254 10.4892 249.434 10.6203C249.616 10.7486 249.847 10.8127 250.126 10.8127ZM255.606 14.4085C255.375 14.4085 255.158 14.39 254.956 14.3529C254.756 14.3187 254.591 14.2745 254.46 14.2204L254.87 12.8607C255.084 12.9263 255.276 12.9619 255.447 12.9676C255.621 12.9733 255.771 12.9334 255.896 12.8479C256.025 12.7624 256.129 12.617 256.208 12.4118L256.315 12.1339L253.959 5.3785H255.875L257.235 10.2013H257.303L258.675 5.3785H260.604L258.051 12.6555C257.929 13.009 257.762 13.3168 257.551 13.579C257.343 13.8441 257.079 14.0479 256.76 14.1904C256.441 14.3358 256.056 14.4085 255.606 14.4085Z" fill="#767676"/>
<path d="M37.9206 203.2L39.6229 202.35L44.1437 205.53L44.2202 205.492L43.2954 200.517L44.9978 199.667L49.0503 205.736L47.7113 206.404L45.0737 202.454L45.0195 202.481L45.9478 207.245L45.036 207.7L40.7186 204.608L40.6644 204.635L43.312 208.6L41.9731 209.268L37.9206 203.2ZM52.453 204.156C51.9493 204.407 51.4524 204.529 50.9623 204.52C50.4731 204.509 50.0139 204.378 49.5849 204.125C49.1546 203.871 48.7791 203.504 48.4586 203.024C48.1459 202.556 47.9693 202.097 47.9287 201.645C47.8881 201.194 47.9793 200.781 48.2023 200.407C48.4274 200.031 48.7801 199.723 49.2605 199.483C49.5835 199.322 49.9165 199.22 50.2596 199.178C50.6035 199.133 50.9435 199.154 51.2797 199.242C51.6181 199.329 51.9427 199.488 52.2535 199.72C52.563 199.95 52.847 200.259 53.1056 200.646L53.3371 200.992L49.2024 203.056L48.68 202.274L51.5363 200.848C51.415 200.666 51.265 200.527 51.0863 200.429C50.9076 200.331 50.7164 200.28 50.5128 200.277C50.3099 200.27 50.1097 200.316 49.912 200.415C49.7059 200.517 49.5528 200.653 49.4527 200.822C49.3535 200.987 49.3087 201.166 49.3184 201.359C49.3268 201.549 49.3899 201.735 49.5078 201.916L50.0045 202.66C50.1549 202.885 50.3295 203.057 50.5282 203.177C50.7291 203.295 50.9421 203.357 51.1672 203.363C51.3924 203.369 51.6186 203.316 51.846 203.202C51.9969 203.127 52.1219 203.038 52.2209 202.936C52.3199 202.834 52.3877 202.721 52.4242 202.598C52.4606 202.474 52.464 202.343 52.4343 202.205L53.7418 201.656C53.8653 201.968 53.8982 202.278 53.8404 202.586C53.7834 202.891 53.6386 203.179 53.4062 203.451C53.1745 203.719 52.8568 203.954 52.453 204.156ZM57.3812 201.676C57.0093 201.862 56.613 201.941 56.1925 201.914C55.7728 201.884 55.3587 201.739 54.9501 201.479C54.5423 201.217 54.1689 200.831 53.8299 200.324C53.4816 199.802 53.2824 199.324 53.2322 198.888C53.1807 198.45 53.2474 198.07 53.4322 197.749C53.618 197.424 53.8904 197.173 54.2496 196.993C54.5237 196.856 54.7812 196.786 55.022 196.781C55.2637 196.774 55.4837 196.807 55.682 196.879C55.8812 196.948 56.0515 197.029 56.1928 197.122L56.2342 197.101L54.7106 194.819L56.0654 194.143L60.118 200.211L58.779 200.88L58.2923 200.151L58.2349 200.179C58.2555 200.338 58.249 200.508 58.2152 200.691C58.1822 200.871 58.1003 201.047 57.9695 201.22C57.8408 201.393 57.6447 201.545 57.3812 201.676ZM57.1407 200.457C57.3597 200.348 57.5076 200.2 57.5846 200.014C57.6625 199.825 57.6745 199.61 57.6207 199.368C57.569 199.125 57.4528 198.868 57.2721 198.598C57.0914 198.327 56.894 198.112 56.68 197.953C56.466 197.794 56.2462 197.698 56.0206 197.666C55.7951 197.634 55.5728 197.672 55.3539 197.781C55.1308 197.893 54.9803 198.043 54.9024 198.232C54.8246 198.421 54.813 198.635 54.8676 198.873C54.9222 199.112 55.0372 199.363 55.2127 199.626C55.3895 199.89 55.5851 200.105 55.7996 200.269C56.0149 200.43 56.2363 200.53 56.4637 200.57C56.6919 200.606 56.9176 200.568 57.1407 200.457ZM61.2345 199.654L58.1951 195.103L59.5532 194.425L62.5926 198.976L61.2345 199.654ZM58.4856 194.176C58.2837 194.276 58.0689 194.301 57.8413 194.248C57.6144 194.193 57.4423 194.077 57.3249 193.902C57.2088 193.728 57.1804 193.543 57.2397 193.348C57.2998 193.149 57.4308 192.999 57.6327 192.899C57.8346 192.798 58.049 192.775 58.2758 192.831C58.5034 192.883 58.6753 192.996 58.7914 193.17C58.9088 193.346 58.9374 193.533 58.8773 193.731C58.8181 193.927 58.6875 194.075 58.4856 194.176ZM65.9522 197.418C65.4507 197.668 64.9533 197.785 64.4601 197.768C63.9677 197.747 63.5067 197.609 63.0772 197.352C62.6498 197.093 62.2824 196.734 61.975 196.274C61.6637 195.808 61.4873 195.351 61.4459 194.903C61.4053 194.451 61.4986 194.037 61.7259 193.661C61.9518 193.282 62.3124 192.969 62.8076 192.722C63.2347 192.508 63.6569 192.394 64.0742 192.378C64.4914 192.362 64.8806 192.438 65.2417 192.605C65.6029 192.772 65.9104 193.027 66.1644 193.369L64.8828 194.009C64.695 193.8 64.4773 193.665 64.2298 193.604C63.9831 193.54 63.7355 193.57 63.4868 193.694C63.2764 193.799 63.1282 193.944 63.0422 194.13C62.9569 194.312 62.938 194.525 62.9854 194.77C63.0329 195.015 63.1522 195.281 63.3435 195.567C63.5374 195.858 63.7448 196.083 63.9657 196.244C64.1887 196.404 64.4145 196.498 64.643 196.527C64.8715 196.555 65.0909 196.516 65.3013 196.411C65.4565 196.334 65.5759 196.235 65.6596 196.114C65.7454 195.992 65.7911 195.855 65.7967 195.702C65.803 195.546 65.7656 195.382 65.6842 195.209L66.9658 194.569C67.1767 194.927 67.2791 195.285 67.2731 195.64C67.2679 195.993 67.1554 196.323 66.9356 196.631C66.7157 196.938 66.3879 197.2 65.9522 197.418ZM70.403 195.192C70.0906 195.348 69.7785 195.437 69.4669 195.458C69.1538 195.477 68.8595 195.423 68.5839 195.294C68.3091 195.163 68.0714 194.947 67.8709 194.647C67.702 194.394 67.6102 194.157 67.5953 193.935C67.5804 193.713 67.6241 193.507 67.7263 193.316C67.8285 193.126 67.9713 192.949 68.1546 192.787C68.34 192.623 68.5466 192.47 68.7744 192.327C69.0407 192.157 69.2531 192.017 69.4115 191.906C69.5686 191.794 69.67 191.693 69.7157 191.605C69.7613 191.516 69.7518 191.423 69.6872 191.326L69.6753 191.309C69.55 191.121 69.3893 191.008 69.1932 190.969C68.9992 190.928 68.7864 190.966 68.5547 191.082C68.3103 191.204 68.1495 191.351 68.0722 191.524C67.9937 191.695 67.9811 191.867 68.0346 192.041L66.7153 192.573C66.5944 192.264 66.5601 191.963 66.6126 191.668C66.6637 191.371 66.8008 191.095 67.0236 190.839C67.2473 190.579 67.5546 190.352 67.9457 190.157C68.2177 190.021 68.4979 189.921 68.7861 189.856C69.0765 189.79 69.3599 189.771 69.6364 189.799C69.915 189.826 70.176 189.909 70.4192 190.048C70.6611 190.186 70.8724 190.39 71.0532 190.66L73.1032 193.73L71.8153 194.373L71.3938 193.742L71.3555 193.761C71.3719 193.942 71.3504 194.12 71.2912 194.295C71.2307 194.467 71.1284 194.63 70.9844 194.784C70.8391 194.935 70.6453 195.071 70.403 195.192ZM70.2102 194.127C70.41 194.027 70.5619 193.903 70.6662 193.753C70.769 193.602 70.8218 193.441 70.8246 193.271C70.8273 193.101 70.7752 192.936 70.6683 192.776L70.3458 192.293C70.3204 192.34 70.2778 192.393 70.218 192.452C70.1589 192.508 70.0896 192.568 70.0101 192.631C69.9293 192.692 69.8478 192.753 69.7656 192.812C69.6821 192.87 69.6065 192.922 69.5387 192.969C69.3938 193.07 69.2777 193.174 69.1904 193.281C69.103 193.388 69.0534 193.498 69.0416 193.612C69.0285 193.724 69.0615 193.839 69.1407 193.958C69.2554 194.13 69.4101 194.227 69.6047 194.252C69.8001 194.273 70.0019 194.231 70.2102 194.127ZM73.7219 187.353L74.3551 188.301L71.4063 189.773L70.7731 188.825L73.7219 187.353ZM70.7144 187.4L72.0724 186.722L74.906 190.965C74.9839 191.082 75.0637 191.163 75.1455 191.209C75.2259 191.254 75.3087 191.271 75.3939 191.263C75.4812 191.254 75.5705 191.226 75.6619 191.181C75.7257 191.149 75.7861 191.112 75.8433 191.07C75.8991 191.027 75.9421 190.994 75.9721 190.971L76.813 191.803C76.7582 191.857 76.6777 191.927 76.5716 192.015C76.4668 192.104 76.3282 192.195 76.1557 192.289C75.8364 192.465 75.5224 192.567 75.2139 192.598C74.9075 192.627 74.6209 192.577 74.3543 192.45C74.0877 192.322 73.8559 192.109 73.6588 191.809L70.7144 187.4ZM77.646 191.463L74.6066 186.911L75.9646 186.234L79.004 190.785L77.646 191.463ZM74.897 185.984C74.6951 186.085 74.4803 186.109 74.2527 186.057C74.0259 186.002 73.8538 185.886 73.7364 185.71C73.6203 185.536 73.5919 185.352 73.6512 185.156C73.7113 184.958 73.8423 184.808 74.0442 184.707C74.2461 184.606 74.4604 184.584 74.6872 184.639C74.9149 184.691 75.0867 184.804 75.2028 184.978C75.3202 185.154 75.3489 185.341 75.2888 185.54C75.2295 185.735 75.0989 185.883 74.897 185.984ZM82.3637 189.226C81.8685 189.474 81.375 189.589 80.8831 189.574C80.392 189.556 79.9313 189.42 79.5009 189.166C79.0693 188.91 78.6978 188.549 78.3864 188.083C78.0725 187.612 77.8958 187.153 77.8566 186.704C77.816 186.252 77.9099 185.839 78.1385 185.465C78.3679 185.087 78.7302 184.774 79.2254 184.527C79.7206 184.28 80.2137 184.165 80.7048 184.184C81.1967 184.199 81.6585 184.335 82.0901 184.591C82.5205 184.845 82.8926 185.207 83.2066 185.677C83.5179 186.143 83.6939 186.602 83.7345 187.053C83.7738 187.502 83.6787 187.915 83.4493 188.293C83.2208 188.668 82.8589 188.979 82.3637 189.226ZM81.7171 188.245C81.9424 188.133 82.0909 187.98 82.1626 187.786C82.233 187.59 82.2373 187.369 82.1752 187.124C82.1154 186.877 81.997 186.622 81.8203 186.357C81.6435 186.092 81.4465 185.876 81.2294 185.708C81.0144 185.538 80.7912 185.431 80.5598 185.386C80.3284 185.341 80.1001 185.374 79.8748 185.487C79.6474 185.6 79.4964 185.756 79.4217 185.954C79.3492 186.151 79.3428 186.373 79.4027 186.619C79.4647 186.865 79.5841 187.12 79.7609 187.385C79.9376 187.649 80.1335 187.866 80.3486 188.036C80.5657 188.204 80.791 188.31 81.0245 188.354C81.2588 188.395 81.4897 188.359 81.7171 188.245ZM85.1984 184.185L86.9555 186.816L85.5975 187.494L82.5581 182.943L83.8524 182.297L84.3886 183.1L84.446 183.071C84.3776 182.752 84.4195 182.452 84.5716 182.171C84.7225 181.887 84.9796 181.655 85.343 181.474C85.6831 181.304 86.0257 181.225 86.371 181.237C86.7162 181.249 87.0447 181.348 87.3565 181.535C87.6669 181.72 87.9402 181.989 88.1763 182.343L90.1116 185.241L88.7535 185.918L86.9687 183.246C86.7848 182.966 86.5632 182.787 86.3038 182.709C86.0431 182.628 85.7768 182.656 85.5047 182.791C85.322 182.883 85.1848 183 85.0934 183.143C85.004 183.285 84.9669 183.446 84.9819 183.625C84.9977 183.802 85.0699 183.988 85.1984 184.185Z" fill="#767676"/>
<path d="M3.45252 169.006C2.83969 169.004 2.31237 168.853 1.87056 168.554C1.43113 168.254 1.09264 167.821 0.855113 167.253C0.619957 166.686 0.503566 166.003 0.505942 165.205C0.505942 164.409 0.62352 163.731 0.858676 163.17C1.09621 162.61 1.43469 162.183 1.87412 161.891C2.31593 161.596 2.84206 161.449 3.45252 161.449C4.06297 161.449 4.58792 161.596 5.02735 161.891C5.46916 162.186 5.80883 162.613 6.04636 163.174C6.28389 163.732 6.40147 164.409 6.39909 165.205C6.39909 166.005 6.28033 166.689 6.0428 167.257C5.80764 167.825 5.47035 168.258 5.03091 168.557C4.59148 168.857 4.06535 169.006 3.45252 169.006ZM3.45252 167.727C3.87057 167.727 4.2043 167.517 4.45371 167.096C4.70312 166.676 4.82664 166.045 4.82426 165.205C4.82426 164.651 4.76725 164.19 4.65324 163.822C4.5416 163.454 4.38245 163.177 4.1758 162.992C3.97152 162.807 3.73043 162.714 3.45252 162.714C3.03684 162.714 2.70429 162.922 2.45489 163.338C2.20548 163.753 2.07959 164.376 2.07721 165.205C2.07721 165.765 2.13303 166.233 2.24467 166.608C2.35869 166.981 2.51902 167.262 2.72567 167.449C2.93232 167.634 3.17461 167.727 3.45252 167.727Z" fill="#767676"/>
<path d="M3.25655 105.65C2.75299 105.65 2.30405 105.558 1.90975 105.372C1.51783 105.187 1.20666 104.932 0.976254 104.606C0.745848 104.281 0.625895 103.908 0.616394 103.488H2.11284C2.12947 103.77 2.24823 104 2.46914 104.175C2.69004 104.351 2.95251 104.439 3.25655 104.439C3.49884 104.439 3.71261 104.386 3.89789 104.279C4.08554 104.169 4.23162 104.019 4.33613 103.826C4.44302 103.631 4.49647 103.408 4.49647 103.156C4.49647 102.9 4.44184 102.674 4.33257 102.479C4.22568 102.285 4.07723 102.133 3.8872 102.023C3.69718 101.914 3.47983 101.858 3.23518 101.856C3.0214 101.856 2.81356 101.9 2.61166 101.988C2.41213 102.076 2.25655 102.195 2.14491 102.348L0.773165 102.102L1.11877 98.2537H5.57961V99.515H2.39075L2.20192 101.343H2.24467C2.37294 101.162 2.56653 101.013 2.82544 100.894C3.08434 100.775 3.37413 100.716 3.6948 100.716C4.13423 100.716 4.52616 100.819 4.87058 101.026C5.215 101.232 5.48697 101.516 5.6865 101.877C5.88603 102.236 5.9846 102.649 5.98223 103.117C5.9846 103.609 5.87059 104.046 5.64018 104.428C5.41215 104.808 5.09267 105.108 4.68174 105.326C4.27319 105.542 3.79813 105.65 3.25655 105.65ZM9.91931 105.711C9.30648 105.709 8.77916 105.558 8.33735 105.258C7.89792 104.959 7.55943 104.526 7.3219 103.958C7.08675 103.39 6.97036 102.707 6.97273 101.909C6.97273 101.114 7.09031 100.435 7.32547 99.8748C7.563 99.3142 7.90148 98.8879 8.34091 98.5957C8.78272 98.3012 9.30885 98.1539 9.91931 98.1539C10.5298 98.1539 11.0547 98.3012 11.4941 98.5957C11.9359 98.8903 12.2756 99.3178 12.5132 99.8784C12.7507 100.437 12.8683 101.114 12.8659 101.909C12.8659 102.71 12.7471 103.394 12.5096 103.962C12.2744 104.529 11.9371 104.963 11.4977 105.262C11.0583 105.561 10.5321 105.711 9.91931 105.711ZM9.91931 104.432C10.3374 104.432 10.6711 104.222 10.9205 103.801C11.1699 103.381 11.2934 102.75 11.2911 101.909C11.2911 101.356 11.234 100.895 11.12 100.527C11.0084 100.159 10.8492 99.8819 10.6426 99.6967C10.4383 99.5114 10.1972 99.4188 9.91931 99.4188C9.50363 99.4188 9.17108 99.6266 8.92168 100.042C8.67227 100.458 8.54638 101.08 8.544 101.909C8.544 102.47 8.59982 102.938 8.71146 103.313C8.82548 103.686 8.98581 103.966 9.19246 104.154C9.39911 104.339 9.6414 104.432 9.91931 104.432Z" fill="#767676"/>
<path d="M3.76606 36.2043V43.5012H2.22329V37.6686H2.18054L0.509505 38.7162V37.348L2.31593 36.2043H3.76606ZM8.3614 43.6616C7.74857 43.6592 7.22125 43.5083 6.77944 43.2091C6.34001 42.9098 6.00153 42.4763 5.76399 41.9086C5.52884 41.3409 5.41245 40.658 5.41482 39.8599C5.41482 39.0641 5.5324 38.386 5.76756 37.8254C6.00509 37.2648 6.34357 36.8385 6.783 36.5463C7.22481 36.2518 7.75094 36.1045 8.3614 36.1045C8.97186 36.1045 9.4968 36.2518 9.93623 36.5463C10.378 36.8408 10.7177 37.2684 10.9552 37.829C11.1928 38.3872 11.3104 39.0641 11.308 39.8599C11.308 40.6603 11.1892 41.3444 10.9517 41.9121C10.7165 42.4798 10.3792 42.9133 9.9398 43.2126C9.50036 43.5119 8.97423 43.6616 8.3614 43.6616ZM8.3614 42.3824C8.77945 42.3824 9.11319 42.1722 9.36259 41.7518C9.612 41.3314 9.73552 40.7007 9.73314 39.8599C9.73314 39.3064 9.67614 38.8456 9.56212 38.4774C9.45048 38.1093 9.29133 37.8325 9.08468 37.6473C8.88041 37.462 8.63931 37.3693 8.3614 37.3693C7.94572 37.3693 7.61318 37.5772 7.36377 37.9929C7.11436 38.4085 6.98847 39.0309 6.98609 39.8599C6.98609 40.4204 7.04191 40.8884 7.15355 41.2637C7.26757 41.6366 7.4279 41.9169 7.63455 42.1045C7.84121 42.2898 8.08349 42.3824 8.3614 42.3824ZM15.2691 43.6616C14.6563 43.6592 14.129 43.5083 13.6871 43.2091C13.2477 42.9098 12.9092 42.4763 12.6717 41.9086C12.4365 41.3409 12.3202 40.658 12.3225 39.8599C12.3225 39.0641 12.4401 38.386 12.6753 37.8254C12.9128 37.2648 13.2513 36.8385 13.6907 36.5463C14.1325 36.2518 14.6587 36.1045 15.2691 36.1045C15.8796 36.1045 16.4045 36.2518 16.8439 36.5463C17.2857 36.8408 17.6254 37.2684 17.8629 37.829C18.1005 38.3872 18.2181 39.0641 18.2157 39.8599C18.2157 40.6603 18.0969 41.3444 17.8594 41.9121C17.6242 42.4798 17.2869 42.9133 16.8475 43.2126C16.4081 43.5119 15.8819 43.6616 15.2691 43.6616ZM15.2691 42.3824C15.6872 42.3824 16.0209 42.1722 16.2703 41.7518C16.5197 41.3314 16.6432 40.7007 16.6409 39.8599C16.6409 39.3064 16.5838 38.8456 16.4698 38.4774C16.3582 38.1093 16.199 37.8325 15.9924 37.6473C15.7881 37.462 15.547 37.3693 15.2691 37.3693C14.8534 37.3693 14.5209 37.5772 14.2715 37.9929C14.0221 38.4085 13.8962 39.0309 13.8938 39.8599C13.8938 40.4204 13.9496 40.8884 14.0613 41.2637C14.1753 41.6366 14.3356 41.9169 14.5423 42.1045C14.7489 42.2898 14.9912 42.3824 15.2691 42.3824Z" fill="#767676"/>
<path d="M100.423 199.47C100.237 199.244 100.004 199.113 99.7222 199.077C99.4404 199.041 99.1338 199.106 98.8022 199.271C98.5769 199.384 98.4065 199.508 98.2909 199.645C98.1741 199.78 98.1085 199.919 98.0942 200.063C98.082 200.206 98.1195 200.343 98.2065 200.473C98.2748 200.584 98.3626 200.667 98.4698 200.721C98.5792 200.775 98.7014 200.807 98.8367 200.819C98.9705 200.828 99.1147 200.823 99.2691 200.804C99.4222 200.783 99.5798 200.752 99.742 200.71L100.416 200.548C100.74 200.465 101.054 200.414 101.358 200.394C101.662 200.374 101.949 200.392 102.22 200.449C102.491 200.507 102.739 200.609 102.965 200.757C103.194 200.904 103.393 201.103 103.564 201.355C103.81 201.727 103.923 202.1 103.903 202.473C103.884 202.844 103.736 203.198 103.458 203.537C103.18 203.873 102.776 204.174 102.245 204.439C101.718 204.702 101.209 204.856 100.717 204.901C100.228 204.945 99.7758 204.875 99.3603 204.69C98.9456 204.502 98.5872 204.192 98.2851 203.761L99.6208 203.094C99.7716 203.29 99.9477 203.429 100.149 203.51C100.352 203.588 100.569 203.615 100.803 203.591C101.037 203.563 101.273 203.49 101.511 203.371C101.744 203.255 101.926 203.122 102.056 202.973C102.188 202.823 102.264 202.667 102.285 202.507C102.305 202.347 102.267 202.193 102.169 202.047C102.078 201.911 101.958 201.818 101.809 201.769C101.662 201.718 101.484 201.702 101.274 201.719C101.067 201.736 100.827 201.777 100.553 201.842L99.7315 202.031C99.0979 202.182 98.5334 202.204 98.0378 202.098C97.5423 201.993 97.1458 201.715 96.8485 201.266C96.601 200.899 96.4918 200.526 96.521 200.145C96.5523 199.764 96.7035 199.402 96.9746 199.062C97.2458 198.721 97.6194 198.432 98.0955 198.194C98.58 197.952 99.0544 197.818 99.5186 197.792C99.9849 197.765 100.411 197.838 100.796 198.012C101.181 198.185 101.498 198.451 101.746 198.81L100.423 199.47ZM107.471 199.132L105.726 196.519L107.084 195.841L110.123 200.392L108.819 201.043L108.267 200.216L108.216 200.242C108.284 200.564 108.243 200.87 108.094 201.16C107.947 201.449 107.69 201.686 107.322 201.869C106.995 202.033 106.661 202.107 106.32 202.093C105.979 202.079 105.653 201.979 105.343 201.795C105.034 201.609 104.76 201.339 104.521 200.984L102.585 198.086L103.944 197.408L105.728 200.081C105.91 200.349 106.129 200.522 106.387 200.602C106.644 200.682 106.901 200.657 107.158 200.529C107.322 200.447 107.452 200.336 107.548 200.196C107.643 200.054 107.688 199.892 107.682 199.71C107.679 199.527 107.609 199.335 107.471 199.132ZM112.349 201.557L108.17 195.299L109.509 194.631L110.019 195.395L110.08 195.365C110.058 195.213 110.061 195.045 110.089 194.863C110.118 194.677 110.195 194.496 110.321 194.32C110.448 194.141 110.649 193.983 110.923 193.846C111.28 193.668 111.667 193.59 112.085 193.613C112.502 193.634 112.917 193.774 113.329 194.031C113.741 194.287 114.121 194.675 114.469 195.197C114.808 195.704 115.006 196.177 115.063 196.615C115.121 197.049 115.059 197.432 114.877 197.762C114.697 198.09 114.42 198.346 114.048 198.532C113.785 198.663 113.533 198.735 113.294 198.746C113.058 198.756 112.84 198.729 112.641 198.665C112.441 198.599 112.268 198.518 112.122 198.423L112.081 198.443L113.707 200.879L112.349 201.557ZM111.019 196.911C111.2 197.182 111.398 197.397 111.613 197.559C111.828 197.72 112.05 197.819 112.278 197.855C112.505 197.889 112.728 197.851 112.947 197.742C113.168 197.632 113.317 197.482 113.395 197.293C113.472 197.102 113.482 196.886 113.426 196.646C113.371 196.402 113.255 196.148 113.078 195.883C112.903 195.62 112.709 195.409 112.497 195.249C112.286 195.088 112.065 194.99 111.837 194.954C111.609 194.918 111.383 194.955 111.16 195.067C110.939 195.177 110.788 195.325 110.708 195.51C110.63 195.694 110.617 195.905 110.669 196.145C110.722 196.385 110.838 196.64 111.019 196.911ZM118.03 198.721L113.851 192.463L115.19 191.795L115.7 192.56L115.761 192.529C115.739 192.377 115.741 192.21 115.77 192.027C115.799 191.841 115.876 191.661 116.002 191.484C116.129 191.305 116.33 191.147 116.604 191.01C116.961 190.832 117.348 190.755 117.766 190.778C118.183 190.799 118.597 190.938 119.01 191.196C119.422 191.451 119.802 191.84 120.15 192.361C120.489 192.869 120.687 193.342 120.744 193.779C120.802 194.214 120.74 194.596 120.558 194.927C120.377 195.254 120.101 195.511 119.729 195.696C119.466 195.828 119.214 195.899 118.975 195.911C118.738 195.921 118.521 195.894 118.322 195.83C118.122 195.764 117.949 195.683 117.803 195.587L117.761 195.608L119.388 198.043L118.03 198.721ZM116.7 194.075C116.881 194.346 117.079 194.562 117.294 194.723C117.509 194.884 117.731 194.983 117.959 195.019C118.186 195.053 118.409 195.016 118.628 194.907C118.849 194.796 118.998 194.647 119.076 194.458C119.153 194.267 119.163 194.051 119.107 193.81C119.052 193.566 118.936 193.312 118.759 193.048C118.584 192.785 118.39 192.573 118.178 192.413C117.966 192.253 117.746 192.155 117.518 192.118C117.29 192.082 117.064 192.12 116.841 192.231C116.62 192.341 116.469 192.489 116.389 192.674C116.31 192.858 116.298 193.07 116.35 193.31C116.403 193.55 116.519 193.805 116.7 194.075ZM119.877 187.433L123.929 193.501L122.571 194.179L118.519 188.111L119.877 187.433ZM125.017 192.958L121.978 188.407L123.336 187.729L126.375 192.28L125.017 192.958ZM122.268 187.48C122.066 187.581 121.851 187.605 121.624 187.553C121.397 187.497 121.225 187.382 121.107 187.206C120.991 187.032 120.963 186.847 121.022 186.652C121.082 186.453 121.213 186.304 121.415 186.203C121.617 186.102 121.831 186.079 122.058 186.135C122.286 186.187 122.458 186.3 122.574 186.474C122.691 186.65 122.72 186.837 122.66 187.035C122.601 187.231 122.47 187.379 122.268 187.48ZM129.754 190.712C129.25 190.964 128.753 191.085 128.263 191.077C127.774 191.066 127.315 190.934 126.886 190.682C126.455 190.428 126.08 190.061 125.759 189.581C125.447 189.113 125.27 188.653 125.23 188.202C125.189 187.751 125.28 187.338 125.503 186.963C125.728 186.588 126.081 186.28 126.561 186.04C126.884 185.879 127.217 185.777 127.56 185.735C127.904 185.69 128.244 185.711 128.581 185.799C128.919 185.885 129.244 186.045 129.554 186.277C129.864 186.507 130.148 186.815 130.406 187.202L130.638 187.549L126.503 189.613L125.981 188.831L128.837 187.405C128.716 187.223 128.566 187.083 128.387 186.986C128.208 186.888 128.017 186.837 127.814 186.833C127.611 186.827 127.411 186.873 127.213 186.971C127.007 187.074 126.854 187.21 126.754 187.378C126.654 187.544 126.61 187.723 126.619 187.915C126.628 188.106 126.691 188.292 126.809 188.473L127.305 189.217C127.456 189.442 127.63 189.614 127.829 189.733C128.03 189.852 128.243 189.914 128.468 189.92C128.693 189.926 128.92 189.873 129.147 189.759C129.298 189.684 129.423 189.595 129.522 189.493C129.621 189.391 129.689 189.278 129.725 189.154C129.762 189.031 129.765 188.9 129.735 188.762L131.043 188.212C131.166 188.525 131.199 188.835 131.141 189.143C131.084 189.448 130.939 189.736 130.707 190.008C130.475 190.276 130.158 190.511 129.754 190.712ZM134.73 183.773L133.534 184.464C133.447 184.376 133.342 184.31 133.219 184.266C133.095 184.22 132.959 184.202 132.813 184.212C132.667 184.219 132.516 184.261 132.358 184.34C132.148 184.445 131.998 184.575 131.909 184.73C131.819 184.883 131.819 185.028 131.91 185.164C131.983 185.273 132.091 185.341 132.234 185.37C132.378 185.398 132.579 185.378 132.836 185.31L133.833 185.034C134.37 184.887 134.823 184.856 135.191 184.941C135.559 185.026 135.853 185.232 136.072 185.56C136.271 185.858 136.351 186.167 136.313 186.487C136.276 186.805 136.136 187.109 135.893 187.399C135.651 187.686 135.318 187.935 134.893 188.147C134.245 188.471 133.644 188.603 133.092 188.544C132.541 188.483 132.087 188.251 131.731 187.849L133.023 187.117C133.186 187.281 133.378 187.372 133.597 187.392C133.816 187.409 134.046 187.357 134.288 187.236C134.527 187.117 134.689 186.979 134.777 186.822C134.866 186.662 134.866 186.514 134.777 186.376C134.698 186.263 134.583 186.195 134.433 186.173C134.28 186.149 134.085 186.17 133.846 186.236L132.893 186.503C132.356 186.652 131.897 186.676 131.516 186.573C131.138 186.47 130.836 186.248 130.609 185.908C130.414 185.616 130.331 185.322 130.359 185.025C130.39 184.728 130.523 184.445 130.757 184.175C130.993 183.905 131.32 183.665 131.739 183.456C132.357 183.147 132.925 183.026 133.442 183.092C133.961 183.157 134.391 183.383 134.73 183.773Z" fill="#767676"/>
<path d="M156.234 207.111L152.181 201.042L156.581 198.847L157.287 199.904L154.268 201.411L155.234 202.857L158.026 201.463L158.733 202.521L155.94 203.915L156.908 205.364L159.939 203.851L160.646 204.908L156.234 207.111ZM166.081 204.471L164.454 202.036L164.413 202.056C164.433 202.215 164.427 202.385 164.393 202.568C164.36 202.748 164.278 202.924 164.147 203.098C164.019 203.27 163.822 203.422 163.559 203.553C163.187 203.739 162.791 203.818 162.37 203.791C161.951 203.761 161.536 203.616 161.128 203.356C160.72 203.094 160.347 202.708 160.008 202.201C159.659 201.679 159.46 201.201 159.41 200.765C159.358 200.327 159.425 199.947 159.61 199.626C159.796 199.301 160.068 199.05 160.427 198.87C160.701 198.733 160.959 198.663 161.2 198.659C161.441 198.651 161.661 198.684 161.86 198.756C162.059 198.825 162.229 198.906 162.37 198.999L162.428 198.97L161.917 198.206L163.256 197.537L167.435 203.795L166.081 204.471ZM163.318 202.334C163.537 202.225 163.685 202.077 163.762 201.891C163.84 201.702 163.852 201.487 163.798 201.245C163.747 201.002 163.631 200.745 163.45 200.475C163.269 200.204 163.072 199.989 162.858 199.83C162.644 199.671 162.424 199.575 162.198 199.543C161.973 199.511 161.751 199.549 161.532 199.658C161.308 199.77 161.158 199.92 161.08 200.109C161.002 200.298 160.991 200.512 161.045 200.75C161.1 200.989 161.215 201.24 161.39 201.503C161.567 201.767 161.763 201.982 161.977 202.146C162.193 202.307 162.414 202.407 162.641 202.447C162.87 202.483 163.095 202.445 163.318 202.334ZM169.232 198.039L167.487 195.426L168.845 194.748L171.884 199.299L170.58 199.95L170.028 199.123L169.977 199.149C170.045 199.47 170.004 199.777 169.855 200.067C169.708 200.356 169.451 200.593 169.083 200.776C168.756 200.939 168.422 201.014 168.081 201C167.74 200.986 167.414 200.886 167.104 200.701C166.795 200.516 166.521 200.245 166.282 199.891L164.347 196.993L165.705 196.315L167.489 198.988C167.671 199.255 167.89 199.429 168.148 199.509C168.405 199.588 168.662 199.564 168.919 199.436C169.083 199.354 169.213 199.243 169.309 199.103C169.404 198.961 169.449 198.799 169.444 198.617C169.44 198.434 169.37 198.241 169.232 198.039ZM172.97 198.757L169.931 194.206L171.289 193.528L174.328 198.079L172.97 198.757ZM170.221 193.279C170.02 193.379 169.805 193.404 169.577 193.351C169.35 193.296 169.178 193.18 169.061 193.004C168.945 192.831 168.916 192.646 168.976 192.45C169.036 192.252 169.167 192.102 169.369 192.001C169.57 191.901 169.785 191.878 170.012 191.933C170.239 191.986 170.411 192.099 170.527 192.273C170.645 192.448 170.673 192.636 170.613 192.834C170.554 193.03 170.423 193.178 170.221 193.279ZM176.556 199.243L172.377 192.985L173.716 192.317L174.226 193.081L174.287 193.051C174.265 192.899 174.268 192.731 174.296 192.549C174.325 192.363 174.402 192.182 174.528 192.006C174.655 191.827 174.856 191.669 175.13 191.532C175.487 191.354 175.874 191.276 176.292 191.299C176.709 191.32 177.124 191.46 177.536 191.717C177.948 191.973 178.328 192.361 178.676 192.883C179.015 193.39 179.213 193.863 179.27 194.301C179.328 194.735 179.266 195.118 179.085 195.448C178.904 195.776 178.627 196.032 178.255 196.218C177.992 196.349 177.74 196.421 177.501 196.432C177.265 196.442 177.047 196.415 176.848 196.351C176.648 196.285 176.475 196.204 176.329 196.109L176.288 196.129L177.914 198.565L176.556 199.243ZM175.226 194.597C175.407 194.868 175.605 195.083 175.82 195.245C176.035 195.406 176.257 195.504 176.485 195.541C176.712 195.575 176.935 195.537 177.154 195.428C177.375 195.318 177.525 195.168 177.602 194.979C177.679 194.788 177.689 194.572 177.633 194.332C177.578 194.088 177.462 193.834 177.285 193.569C177.11 193.306 176.916 193.095 176.704 192.935C176.493 192.774 176.272 192.676 176.044 192.64C175.816 192.604 175.59 192.641 175.367 192.753C175.146 192.863 174.995 193.011 174.915 193.196C174.837 193.38 174.824 193.591 174.876 193.831C174.929 194.071 175.045 194.326 175.226 194.597ZM181.097 194.7L178.058 190.149L179.352 189.503L179.888 190.306L179.946 190.278C179.87 189.96 179.899 189.665 180.034 189.392C180.169 189.119 180.403 188.9 180.734 188.734C181.07 188.567 181.408 188.502 181.748 188.54C182.087 188.577 182.384 188.708 182.64 188.933L182.691 188.908C182.616 188.597 182.658 188.298 182.815 188.012C182.973 187.722 183.232 187.488 183.591 187.309C184.048 187.081 184.509 187.031 184.974 187.159C185.441 187.285 185.839 187.594 186.169 188.088L188.213 191.149L186.858 191.825L184.98 189.013C184.811 188.761 184.612 188.607 184.383 188.553C184.154 188.498 183.931 188.525 183.715 188.634C183.468 188.757 183.325 188.926 183.284 189.141C183.242 189.354 183.3 189.579 183.459 189.816L185.315 192.595L183.998 193.253L182.103 190.414C181.953 190.191 181.766 190.047 181.539 189.984C181.315 189.92 181.091 189.943 180.868 190.054C180.717 190.13 180.605 190.233 180.531 190.365C180.458 190.493 180.429 190.638 180.443 190.8C180.456 190.959 180.519 191.123 180.631 191.291L182.455 194.023L181.097 194.7ZM191.576 189.589C191.073 189.84 190.576 189.962 190.086 189.953C189.596 189.942 189.137 189.81 188.708 189.558C188.278 189.304 187.902 188.937 187.582 188.457C187.269 187.989 187.093 187.53 187.052 187.078C187.011 186.627 187.103 186.214 187.326 185.84C187.551 185.464 187.903 185.156 188.384 184.916C188.707 184.755 189.04 184.653 189.383 184.611C189.727 184.566 190.067 184.587 190.403 184.675C190.741 184.761 191.066 184.921 191.377 185.153C191.686 185.383 191.97 185.691 192.229 186.079L192.46 186.425L188.326 188.489L187.803 187.707L190.66 186.281C190.538 186.099 190.388 185.96 190.21 185.862C190.031 185.764 189.84 185.713 189.636 185.71C189.433 185.703 189.233 185.749 189.035 185.847C188.829 185.95 188.676 186.086 188.576 186.254C188.477 186.42 188.432 186.599 188.442 186.792C188.45 186.982 188.513 187.168 188.631 187.349L189.128 188.093C189.278 188.318 189.453 188.49 189.652 188.61C189.852 188.728 190.065 188.79 190.291 188.796C190.516 188.802 190.742 188.749 190.969 188.635C191.12 188.56 191.245 188.471 191.344 188.369C191.443 188.267 191.511 188.154 191.547 188.031C191.584 187.907 191.587 187.776 191.558 187.638L192.865 187.089C192.989 187.401 193.022 187.711 192.964 188.019C192.907 188.324 192.762 188.612 192.529 188.884C192.298 189.152 191.98 189.387 191.576 189.589ZM194.252 184.627L196.009 187.258L194.651 187.936L191.611 183.384L192.906 182.738L193.442 183.541L193.499 183.513C193.431 183.194 193.473 182.894 193.625 182.612C193.776 182.329 194.033 182.097 194.396 181.915C194.736 181.746 195.079 181.667 195.424 181.679C195.769 181.691 196.098 181.79 196.41 181.977C196.72 182.162 196.993 182.431 197.23 182.785L199.165 185.682L197.807 186.36L196.022 183.688C195.838 183.408 195.616 183.229 195.357 183.15C195.096 183.07 194.83 183.097 194.558 183.233C194.375 183.324 194.238 183.442 194.147 183.585C194.057 183.727 194.02 183.887 194.035 184.067C194.051 184.243 194.123 184.43 194.252 184.627ZM199.8 179.297L200.433 180.245L197.485 181.717L196.851 180.769L199.8 179.297ZM196.793 179.344L198.151 178.667L200.984 182.91C201.062 183.026 201.142 183.107 201.224 183.153C201.304 183.198 201.387 183.216 201.472 183.207C201.56 183.198 201.649 183.17 201.74 183.125C201.804 183.093 201.864 183.056 201.922 183.015C201.977 182.971 202.02 182.938 202.05 182.915L202.891 183.747C202.836 183.801 202.756 183.872 202.65 183.959C202.545 184.048 202.406 184.139 202.234 184.233C201.915 184.409 201.601 184.511 201.292 184.542C200.986 184.571 200.699 184.521 200.433 184.394C200.166 184.266 199.934 184.053 199.737 183.753L196.793 179.344Z" fill="#767676"/>
<path d="M223.471 192.367L224.851 191.678L227.483 195.619C227.779 196.061 227.923 196.505 227.918 196.951C227.914 197.395 227.771 197.811 227.489 198.2C227.206 198.586 226.794 198.914 226.255 199.183C225.713 199.454 225.177 199.598 224.649 199.617C224.119 199.634 223.63 199.533 223.184 199.314C222.737 199.094 222.365 198.763 222.07 198.321L219.438 194.38L220.819 193.691L223.377 197.522C223.531 197.753 223.723 197.932 223.951 198.057C224.182 198.182 224.431 198.246 224.7 198.249C224.968 198.252 225.235 198.187 225.501 198.054C225.769 197.921 225.967 197.753 226.096 197.552C226.227 197.349 226.287 197.131 226.275 196.897C226.266 196.662 226.184 196.429 226.029 196.198L223.471 192.367ZM231.915 191.905L230.72 192.597C230.632 192.509 230.527 192.443 230.405 192.399C230.28 192.353 230.145 192.335 229.999 192.345C229.853 192.352 229.701 192.394 229.544 192.473C229.334 192.578 229.184 192.708 229.095 192.863C229.005 193.016 229.005 193.161 229.096 193.297C229.168 193.406 229.276 193.474 229.42 193.503C229.564 193.531 229.764 193.511 230.022 193.443L231.019 193.167C231.556 193.02 232.009 192.989 232.377 193.074C232.745 193.158 233.039 193.365 233.258 193.693C233.457 193.991 233.537 194.3 233.499 194.62C233.462 194.938 233.322 195.242 233.079 195.532C232.837 195.819 232.504 196.068 232.079 196.28C231.43 196.604 230.83 196.736 230.278 196.677C229.727 196.615 229.273 196.384 228.917 195.982L230.209 195.25C230.372 195.414 230.563 195.505 230.783 195.524C231.002 195.542 231.232 195.49 231.474 195.369C231.712 195.25 231.875 195.112 231.963 194.955C232.052 194.795 232.051 194.646 231.963 194.509C231.884 194.396 231.769 194.328 231.618 194.306C231.466 194.281 231.271 194.303 231.032 194.369L230.079 194.635C229.541 194.785 229.083 194.809 228.702 194.706C228.324 194.603 228.022 194.381 227.795 194.041C227.6 193.749 227.516 193.455 227.545 193.158C227.576 192.861 227.709 192.578 227.942 192.308C228.178 192.038 228.506 191.798 228.924 191.589C229.543 191.28 230.111 191.159 230.628 191.225C231.147 191.289 231.576 191.516 231.915 191.905ZM236.509 194.065C236.196 194.221 235.884 194.31 235.572 194.331C235.259 194.35 234.965 194.296 234.69 194.167C234.415 194.036 234.177 193.82 233.976 193.52C233.808 193.267 233.716 193.03 233.701 192.808C233.686 192.586 233.73 192.38 233.832 192.189C233.934 191.999 234.077 191.822 234.26 191.66C234.446 191.496 234.652 191.343 234.88 191.2C235.146 191.03 235.359 190.89 235.517 190.779C235.674 190.667 235.776 190.566 235.821 190.477C235.867 190.389 235.857 190.296 235.793 190.199L235.781 190.181C235.656 189.994 235.495 189.88 235.299 189.841C235.105 189.801 234.892 189.839 234.66 189.955C234.416 190.077 234.255 190.224 234.178 190.397C234.099 190.568 234.087 190.74 234.14 190.913L232.821 191.446C232.7 191.137 232.666 190.836 232.718 190.541C232.769 190.244 232.906 189.968 233.129 189.711C233.353 189.452 233.66 189.225 234.051 189.03C234.323 188.894 234.603 188.794 234.892 188.729C235.182 188.663 235.465 188.644 235.742 188.672C236.021 188.699 236.282 188.782 236.525 188.921C236.767 189.059 236.978 189.263 237.159 189.533L239.209 192.603L237.921 193.246L237.499 192.615L237.461 192.634C237.477 192.815 237.456 192.993 237.397 193.168C237.336 193.34 237.234 193.503 237.09 193.657C236.945 193.808 236.751 193.944 236.509 194.065ZM236.316 193C236.516 192.9 236.668 192.776 236.772 192.626C236.875 192.475 236.927 192.314 236.93 192.144C236.933 191.974 236.881 191.809 236.774 191.649L236.451 191.166C236.426 191.213 236.383 191.266 236.324 191.325C236.265 191.381 236.195 191.44 236.116 191.504C236.035 191.565 235.953 191.626 235.871 191.685C235.788 191.743 235.712 191.795 235.644 191.842C235.499 191.943 235.383 192.047 235.296 192.154C235.209 192.261 235.159 192.371 235.147 192.485C235.134 192.597 235.167 192.712 235.246 192.831C235.361 193.002 235.516 193.1 235.71 193.124C235.906 193.145 236.108 193.104 236.316 193ZM243.672 192.777C243.232 192.997 242.817 193.129 242.427 193.173C242.041 193.219 241.691 193.192 241.378 193.092C241.065 192.993 240.802 192.838 240.587 192.626L241.738 191.842C241.837 191.914 241.954 191.969 242.09 192.006C242.225 192.044 242.377 192.053 242.545 192.032C242.716 192.013 242.9 191.953 243.098 191.855C243.393 191.707 243.592 191.519 243.693 191.289C243.798 191.06 243.747 190.79 243.538 190.478L242.982 189.645L242.925 189.674C242.95 189.83 242.94 189.994 242.896 190.166C242.853 190.338 242.761 190.506 242.621 190.67C242.482 190.835 242.283 190.982 242.023 191.111C241.656 191.295 241.268 191.383 240.861 191.375C240.454 191.365 240.052 191.24 239.655 191.002C239.258 190.76 238.891 190.387 238.555 189.883C238.211 189.368 238.013 188.892 237.963 188.456C237.913 188.02 237.98 187.642 238.165 187.32C238.352 186.998 238.625 186.747 238.985 186.568C239.259 186.431 239.517 186.36 239.76 186.354C240.002 186.347 240.222 186.379 240.42 186.452C240.619 186.521 240.791 186.601 240.934 186.693L240.985 186.667L240.475 185.903L241.823 185.23L244.892 189.825C245.151 190.213 245.265 190.587 245.235 190.95C245.205 191.313 245.053 191.649 244.779 191.96C244.508 192.272 244.139 192.544 243.672 192.777ZM241.82 189.948C242.039 189.839 242.191 189.696 242.274 189.52C242.359 189.341 242.378 189.137 242.332 188.907C242.287 188.674 242.175 188.424 241.997 188.157C241.819 187.891 241.624 187.68 241.413 187.524C241.2 187.367 240.981 187.272 240.756 187.24C240.53 187.208 240.308 187.246 240.089 187.356C239.866 187.467 239.715 187.617 239.638 187.806C239.558 187.993 239.545 188.205 239.599 188.442C239.652 188.679 239.765 188.926 239.938 189.185C240.113 189.448 240.304 189.655 240.511 189.808C240.718 189.957 240.932 190.046 241.153 190.076C241.375 190.102 241.597 190.06 241.82 189.948ZM248.234 188.217C247.731 188.468 247.234 188.59 246.744 188.581C246.254 188.57 245.795 188.438 245.366 188.186C244.936 187.932 244.56 187.565 244.24 187.085C243.927 186.617 243.751 186.158 243.71 185.706C243.669 185.255 243.761 184.842 243.984 184.468C244.209 184.092 244.561 183.784 245.042 183.544C245.365 183.383 245.698 183.281 246.041 183.239C246.385 183.194 246.725 183.215 247.061 183.303C247.399 183.389 247.724 183.549 248.035 183.781C248.344 184.011 248.628 184.319 248.887 184.707L249.118 185.053L244.984 187.117L244.461 186.335L247.318 184.909C247.196 184.727 247.046 184.588 246.868 184.49C246.689 184.392 246.498 184.341 246.294 184.338C246.091 184.331 245.891 184.377 245.693 184.475C245.487 184.578 245.334 184.714 245.234 184.882C245.135 185.048 245.09 185.227 245.1 185.42C245.108 185.61 245.171 185.796 245.289 185.977L245.786 186.721C245.936 186.946 246.111 187.118 246.309 187.238C246.51 187.356 246.723 187.418 246.948 187.424C247.174 187.43 247.4 187.377 247.627 187.263C247.778 187.188 247.903 187.099 248.002 186.997C248.101 186.895 248.169 186.782 248.205 186.659C248.242 186.535 248.245 186.404 248.215 186.266L249.523 185.717C249.647 186.029 249.679 186.339 249.622 186.647C249.565 186.952 249.42 187.24 249.187 187.512C248.956 187.78 248.638 188.015 248.234 188.217Z" fill="#767676"/>
<line opacity="0.5" x1="34.4541" y1="39.4644" x2="294.268" y2="39.4644" stroke="#B1B1B1" stroke-width="0.501666"/>
<line opacity="0.5" y1="-0.250833" x2="259.818" y2="-0.250833" transform="matrix(0.999989 -0.00467301 0.00625239 0.999981 34.4541 103.003)" stroke="#B1B1B1" stroke-width="0.501666"/>
<line opacity="0.5" x1="34.4541" y1="164.794" x2="294.268" y2="164.794" stroke="#B1B1B1" stroke-width="0.501666"/>
<rect x="80.3826" y="120.369" width="8.61263" height="44.6746" rx="1" fill="#B87C4C"/>
<rect x="91.8648" y="135.266" width="7.17719" height="29.7831" rx="1" fill="#EBD9D1"/>
<rect x="137.801" y="78.1771" width="7.17719" height="86.8673" rx="1" fill="#B87C4C"/>
<rect x="147.847" y="107.964" width="8.61263" height="57.0842" rx="1" fill="#EBD9D1"/>
<rect x="193.783" y="107.964" width="8.61263" height="57.0842" rx="1" fill="#B87C4C"/>
<rect x="205.273" y="127.821" width="7.17719" height="37.2288" rx="1" fill="#EBD9D1"/>
<rect x="251.194" y="90.5976" width="7.17719" height="74.4577" rx="1" fill="#B87C4C"/>
<rect x="261.255" y="115.408" width="7.17719" height="49.6384" rx="1" fill="#EBD9D1"/>
</svg>
