<svg width="46" height="46" viewBox="0 0 46 46" fill="none" xmlns="http://www.w3.org/2000/svg">
<path d="M26.2914 31.9248V33.8028C26.2914 35.297 25.6979 36.73 24.6413 37.7865C23.5847 38.8431 22.1517 39.4366 20.6576 39.4366C19.1634 39.4366 17.7304 38.8431 16.6738 37.7865C15.6173 36.73 15.0237 35.297 15.0237 33.8028V31.9248M26.2914 31.9248H15.0237M26.2914 31.9248H33.8032C34.3013 31.9248 34.779 31.727 35.1312 31.3748C35.4833 31.0226 35.6812 30.5449 35.6812 30.0469V28.9464C35.6811 28.4483 35.4832 27.9708 35.131 27.6187L34.1732 26.6609C34.0558 26.5439 33.9627 26.4049 33.8992 26.2518C33.8357 26.0987 33.8031 25.9346 33.8032 25.7689V18.7791C33.8032 18.4486 33.7907 18.1206 33.7657 17.7951M15.0237 31.9248H7.51187C7.0138 31.9248 6.53614 31.727 6.18395 31.3748C5.83177 31.0226 5.63391 30.5449 5.63391 30.0469V28.9464C5.63402 28.4483 5.83194 27.9708 6.18415 27.6187L7.14191 26.659C7.25906 26.5422 7.35203 26.4035 7.41551 26.2508C7.479 26.098 7.51174 25.9343 7.51187 25.7689V18.7791C7.51146 16.724 7.99289 14.6975 8.9175 12.8621C9.84212 11.0268 11.1842 9.43376 12.8359 8.21099C14.4876 6.98821 16.403 6.16972 18.4284 5.82123C20.4537 5.47274 22.5325 5.60395 24.498 6.20433M33.7657 17.7951C34.708 17.2572 35.5226 16.5216 36.1535 15.6389C36.7843 14.7561 37.2165 13.7472 37.4202 12.6815C37.6239 11.6158 37.5943 10.5186 37.3335 9.4654C37.0726 8.41221 36.5868 7.42803 35.9092 6.58056C35.2317 5.73308 34.3787 5.04244 33.4088 4.55614C32.4388 4.06983 31.3751 3.79941 30.2907 3.76348C29.2063 3.72755 28.127 3.92696 27.127 4.34799C26.127 4.76903 25.2301 5.40357 24.498 6.20433M33.7657 17.7951C32.2108 18.6826 30.3901 18.9856 28.6316 18.6494C26.8732 18.3133 25.2925 17.3602 24.1746 15.9618C23.0567 14.5634 22.4749 12.8118 22.5342 11.0224C22.5935 9.23309 23.2899 7.52564 24.498 6.20433M24.498 6.20433H24.5017" stroke="#C5C4C4" stroke-width="3.33333" stroke-linecap="square" stroke-linejoin="round"/>
</svg>
