<svg width="30" height="36" viewBox="0 0 30 36" fill="none" xmlns="http://www.w3.org/2000/svg">
<path d="M0 3.59777C0 2.64358 0.38982 1.72848 1.0837 1.05376C1.77759 0.37905 2.7187 0 3.7 0H18.5C18.9906 0.000101884 19.4611 0.189694 19.8079 0.527074L29.0579 9.5215C29.4049 9.85878 29.5999 10.3163 29.6 10.7933V32.3799C29.6 33.3341 29.2102 34.2492 28.5163 34.924C27.8224 35.5987 26.8813 35.9777 25.9 35.9777H3.7C2.7187 35.9777 1.77759 35.5987 1.0837 34.924C0.38982 34.2492 0 33.3341 0 32.3799V3.59777ZM25.1341 10.7933L18.5 4.34251V10.7933H25.1341ZM14.8 3.59777H3.7V32.3799H25.9V14.3911H16.65C16.1593 14.3911 15.6888 14.2016 15.3419 13.8642C14.9949 13.5268 14.8 13.0693 14.8 12.5922V3.59777ZM7.4 19.7877C7.4 19.3107 7.59491 18.8531 7.94185 18.5157C8.28879 18.1784 8.75935 17.9889 9.25 17.9889H20.35C20.8406 17.9889 21.3112 18.1784 21.6581 18.5157C22.0051 18.8531 22.2 19.3107 22.2 19.7877C22.2 20.2648 22.0051 20.7224 21.6581 21.0597C21.3112 21.3971 20.8406 21.5866 20.35 21.5866H9.25C8.75935 21.5866 8.28879 21.3971 7.94185 21.0597C7.59491 20.7224 7.4 20.2648 7.4 19.7877ZM7.4 26.9833C7.4 26.5062 7.59491 26.0486 7.94185 25.7113C8.28879 25.3739 8.75935 25.1844 9.25 25.1844H20.35C20.8406 25.1844 21.3112 25.3739 21.6581 25.7113C22.0051 26.0486 22.2 26.5062 22.2 26.9833C22.2 27.4604 22.0051 27.9179 21.6581 28.2553C21.3112 28.5927 20.8406 28.7822 20.35 28.7822H9.25C8.75935 28.7822 8.28879 28.5927 7.94185 28.2553C7.59491 27.9179 7.4 27.4604 7.4 26.9833Z" fill="#2290A6"/>
</svg>
