<svg width="391" height="191" viewBox="0 0 391 191" fill="none" xmlns="http://www.w3.org/2000/svg">
<path d="M12.7426 20.1754V27.4724H11.1999V21.6398H11.1571L9.48607 22.6873V21.3192L11.2925 20.1754H12.7426ZM17.142 27.5722C16.6384 27.5722 16.1895 27.4795 15.7952 27.2943C15.4033 27.109 15.0921 26.8536 14.8617 26.5282C14.6313 26.2028 14.5113 25.8299 14.5018 25.4095H15.9983C16.0149 25.6921 16.1337 25.9213 16.3546 26.0971C16.5755 26.2729 16.838 26.3608 17.142 26.3608C17.3843 26.3608 17.5981 26.3073 17.7833 26.2004C17.971 26.0912 18.1171 25.9403 18.2216 25.7479C18.3285 25.5532 18.3819 25.3299 18.3819 25.0781C18.3819 24.8216 18.3273 24.5959 18.218 24.4011C18.1111 24.2064 17.9627 24.0543 17.7726 23.9451C17.5826 23.8358 17.3653 23.78 17.1206 23.7776C16.9068 23.7776 16.699 23.8216 16.4971 23.9094C16.2976 23.9973 16.142 24.1173 16.0304 24.2693L14.6586 24.0235L15.0042 20.1754H19.4651V21.4367H16.2762L16.0874 23.2645H16.1301C16.2584 23.084 16.452 22.9344 16.7109 22.8156C16.9698 22.6968 17.2596 22.6375 17.5802 22.6375C18.0197 22.6375 18.4116 22.7408 18.756 22.9474C19.1004 23.1541 19.3724 23.4379 19.5719 23.799C19.7715 24.1577 19.87 24.571 19.8677 25.0389C19.87 25.5306 19.756 25.9677 19.5256 26.3501C19.2976 26.7301 18.9781 27.0294 18.5672 27.2479C18.1586 27.4641 17.6836 27.5722 17.142 27.5722Z" fill="#2E2E30"/>
<path d="M6.31243 2.70319H8.21506L10.2246 7.60584H10.3101L12.3196 2.70319H14.2222V10.0002H12.7258V5.25071H12.6652L10.7768 9.96452H9.75782L7.86945 5.2329H7.80888V10.0002H6.31243V2.70319ZM17.9375 10.107C17.3841 10.107 16.9054 9.98946 16.5016 9.75431C16.1002 9.51678 15.7902 9.18661 15.5717 8.7638C15.3532 8.33862 15.2439 7.84574 15.2439 7.28517C15.2439 6.71984 15.3532 6.22578 15.5717 5.80297C15.7902 5.37779 16.1002 5.04762 16.5016 4.81247C16.9054 4.57494 17.3841 4.45617 17.9375 4.45617C18.491 4.45617 18.9684 4.57494 19.3698 4.81247C19.7736 5.04762 20.0848 5.37779 20.3033 5.80297C20.5219 6.22578 20.6311 6.71984 20.6311 7.28517C20.6311 7.84574 20.5219 8.33862 20.3033 8.7638C20.0848 9.18661 19.7736 9.51678 19.3698 9.75431C18.9684 9.98946 18.491 10.107 17.9375 10.107ZM17.9446 8.93126C18.1964 8.93126 18.4066 8.86 18.5753 8.71748C18.7439 8.57259 18.871 8.37544 18.9565 8.12603C19.0444 7.87662 19.0884 7.59277 19.0884 7.27448C19.0884 6.95619 19.0444 6.67234 18.9565 6.42293C18.871 6.17352 18.7439 5.97637 18.5753 5.83148C18.4066 5.68658 18.1964 5.61414 17.9446 5.61414C17.6905 5.61414 17.4767 5.68658 17.3033 5.83148C17.1323 5.97637 17.0028 6.17352 16.9149 6.42293C16.8294 6.67234 16.7867 6.95619 16.7867 7.27448C16.7867 7.59277 16.8294 7.87662 16.9149 8.12603C17.0028 8.37544 17.1323 8.57259 17.3033 8.71748C17.4767 8.86 17.6905 8.93126 17.9446 8.93126ZM23.1359 6.83624V10.0002H21.6181V4.52743H23.0646V5.493H23.1288C23.2499 5.1747 23.453 4.92292 23.738 4.73765C24.0231 4.55 24.3687 4.45617 24.7749 4.45617C25.1549 4.45617 25.4863 4.53931 25.7689 4.70558C26.0516 4.87185 26.2713 5.10938 26.4281 5.41817C26.5848 5.72459 26.6632 6.09039 26.6632 6.51557V10.0002H25.1454V6.78635C25.1478 6.45143 25.0623 6.19015 24.8889 6.0025C24.7155 5.81248 24.4767 5.71746 24.1727 5.71746C23.9684 5.71746 23.7879 5.76141 23.6311 5.84929C23.4767 5.93718 23.3556 6.06545 23.2677 6.23409C23.1822 6.40037 23.1383 6.60108 23.1359 6.83624Z" fill="#939393"/>
<path d="M85.7661 20.2058V27.5028H84.2233V21.6702H84.1805L82.5095 22.7177V21.3496L84.3159 20.2058H85.7661ZM90.3008 27.6026C89.9255 27.6002 89.5633 27.5372 89.2141 27.4137C88.8673 27.2902 88.5562 27.0895 88.2806 26.8116C88.0051 26.5337 87.7866 26.1655 87.625 25.7071C87.4659 25.2486 87.3863 24.6857 87.3863 24.0182C87.3887 23.4054 87.4588 22.8579 87.5965 22.3757C87.7367 21.8911 87.9362 21.4802 88.1951 21.1429C88.4564 20.8056 88.7688 20.5491 89.1322 20.3733C89.4956 20.1952 89.903 20.1061 90.3543 20.1061C90.8412 20.1061 91.2711 20.2011 91.6441 20.3911C92.017 20.5788 92.3163 20.8341 92.5419 21.1572C92.77 21.4802 92.9077 21.8424 92.9552 22.2439H91.4339C91.3745 21.9897 91.2498 21.7902 91.0597 21.6453C90.8697 21.5004 90.6346 21.4279 90.3543 21.4279C89.8792 21.4279 89.5182 21.6346 89.2711 22.0479C89.0265 22.4612 88.9018 23.023 88.897 23.7332H88.9469C89.0562 23.517 89.2034 23.3329 89.3887 23.1809C89.5764 23.0265 89.7889 22.909 90.0265 22.8282C90.2664 22.7451 90.5194 22.7035 90.7854 22.7035C91.2177 22.7035 91.6025 22.8056 91.9398 23.0099C92.2771 23.2118 92.5431 23.4897 92.7379 23.8436C92.9327 24.1976 93.0301 24.6026 93.0301 25.0586C93.0301 25.5527 92.9149 25.9921 92.6845 26.3769C92.4564 26.7617 92.1369 27.0634 91.726 27.2819C91.3175 27.4981 90.8424 27.6049 90.3008 27.6026ZM90.2937 26.3912C90.5312 26.3912 90.7438 26.3342 90.9315 26.2201C91.1191 26.1061 91.2664 25.9517 91.3733 25.757C91.4802 25.5622 91.5336 25.3436 91.5336 25.1014C91.5336 24.8591 91.4802 24.6417 91.3733 24.4493C91.2688 24.2569 91.1239 24.1037 90.9386 23.9897C90.7533 23.8757 90.5419 23.8187 90.3044 23.8187C90.1262 23.8187 89.9612 23.852 89.8091 23.9185C89.6595 23.985 89.5277 24.0776 89.4136 24.1964C89.302 24.3151 89.2141 24.4529 89.15 24.6097C89.0859 24.7641 89.0538 24.9292 89.0538 25.1049C89.0538 25.3401 89.1072 25.5551 89.2141 25.7498C89.3234 25.9446 89.4707 26.1002 89.6559 26.2166C89.8436 26.333 90.0562 26.3912 90.2937 26.3912Z" fill="#2E2E30"/>
<path d="M78.5356 3.97517V2.70319H84.5286V3.97517H82.2946V10.0002H80.7696V3.97517H78.5356ZM88.2519 7.66997V4.52743H89.7697V10.0002H88.3124V9.00608H88.2554C88.1319 9.32675 87.9265 9.58447 87.639 9.77925C87.354 9.97402 87.006 10.0714 86.5951 10.0714C86.2293 10.0714 85.9074 9.98828 85.6295 9.822C85.3516 9.65573 85.1343 9.41939 84.9775 9.11297C84.8231 8.80656 84.7447 8.43957 84.7423 8.01202V4.52743H86.2602V7.74123C86.2625 8.06427 86.3492 8.31962 86.5203 8.50727C86.6913 8.69492 86.9205 8.78874 87.2079 8.78874C87.3908 8.78874 87.5618 8.74717 87.721 8.66404C87.8801 8.57853 88.0084 8.45264 88.1058 8.28636C88.2055 8.12009 88.2542 7.91463 88.2519 7.66997ZM93.4779 10.107C92.9149 10.107 92.4303 9.99303 92.0242 9.765C91.6204 9.53459 91.3092 9.20917 91.0907 8.78874C90.8721 8.36594 90.7629 7.86593 90.7629 7.28873C90.7629 6.72578 90.8721 6.23172 91.0907 5.80654C91.3092 5.38136 91.6168 5.05 92.0135 4.81247C92.4125 4.57494 92.8805 4.45617 93.4173 4.45617C93.7783 4.45617 94.1144 4.51437 94.4256 4.63076C94.7391 4.74477 95.0123 4.91698 95.2451 5.14739C95.4802 5.37779 95.6631 5.66758 95.7938 6.01675C95.9244 6.36355 95.9897 6.76973 95.9897 7.23529V7.65216H91.3686V6.71153H94.561C94.561 6.493 94.5135 6.29941 94.4185 6.13077C94.3235 5.96212 94.1916 5.83029 94.023 5.73528C93.8567 5.63789 93.6631 5.5892 93.4422 5.5892C93.2118 5.5892 93.0075 5.64264 92.8294 5.74953C92.6536 5.85404 92.5159 5.99537 92.4161 6.17352C92.3163 6.3493 92.2653 6.54526 92.2629 6.76141V7.65572C92.2629 7.9265 92.3128 8.16047 92.4125 8.35762C92.5147 8.55477 92.6584 8.70679 92.8436 8.81368C93.0289 8.92057 93.2486 8.97402 93.5028 8.97402C93.6714 8.97402 93.8258 8.95026 93.966 8.90276C94.1061 8.85525 94.2261 8.78399 94.3258 8.68898C94.4256 8.59397 94.5016 8.47758 94.5539 8.33981L95.9577 8.43245C95.8864 8.76974 95.7403 9.06428 95.5194 9.31606C95.3009 9.56547 95.0182 9.76025 94.6714 9.90039C94.327 10.0382 93.9292 10.107 93.4779 10.107Z" fill="#939393"/>
<path d="M156.094 20.1754V27.4724H154.551V21.6398H154.509L152.838 22.6873V21.3192L154.644 20.1754H156.094ZM158.117 27.4724L161.142 21.4866V21.4367H157.618V20.1754H162.738V21.4546L159.71 27.4724H158.117Z" fill="#2E2E30"/>
<path d="M148.235 10.0002L146.147 2.70319H147.832L149.04 7.7733H149.1L150.433 2.70319H151.876L153.205 7.78399H153.269L154.477 2.70319H156.162L154.074 10.0002H152.571L151.181 5.22934H151.124L149.738 10.0002H148.235ZM158.866 10.107C158.303 10.107 157.818 9.99303 157.412 9.765C157.008 9.53459 156.697 9.20917 156.478 8.78874C156.26 8.36594 156.151 7.86593 156.151 7.28873C156.151 6.72578 156.26 6.23172 156.478 5.80654C156.697 5.38136 157.005 5.05 157.401 4.81247C157.8 4.57494 158.268 4.45617 158.805 4.45617C159.166 4.45617 159.502 4.51437 159.813 4.63076C160.127 4.74477 160.4 4.91698 160.633 5.14739C160.868 5.37779 161.051 5.66758 161.182 6.01675C161.312 6.36355 161.377 6.76973 161.377 7.23529V7.65216H156.756V6.71153H159.949C159.949 6.493 159.901 6.29941 159.806 6.13077C159.711 5.96212 159.579 5.83029 159.411 5.73528C159.244 5.63789 159.051 5.5892 158.83 5.5892C158.6 5.5892 158.395 5.64264 158.217 5.74953C158.041 5.85404 157.904 5.99537 157.804 6.17352C157.704 6.3493 157.653 6.54526 157.651 6.76141V7.65572C157.651 7.9265 157.7 8.16047 157.8 8.35762C157.902 8.55477 158.046 8.70679 158.231 8.81368C158.417 8.92057 158.636 8.97402 158.891 8.97402C159.059 8.97402 159.214 8.95026 159.354 8.90276C159.494 8.85525 159.614 8.78399 159.714 8.68898C159.813 8.59397 159.889 8.47758 159.942 8.33981L161.345 8.43245C161.274 8.76974 161.128 9.06428 160.907 9.31606C160.689 9.56547 160.406 9.76025 160.059 9.90039C159.715 10.0382 159.317 10.107 158.866 10.107ZM164.385 10.0892C163.969 10.0892 163.592 9.98234 163.255 9.76856C162.92 9.55241 162.654 9.2353 162.457 8.81725C162.262 8.39682 162.165 7.88137 162.165 7.27092C162.165 6.64383 162.266 6.12245 162.468 5.70677C162.67 5.28872 162.938 4.97636 163.273 4.76971C163.61 4.56069 163.98 4.45617 164.381 4.45617C164.687 4.45617 164.943 4.50843 165.147 4.61294C165.354 4.71508 165.52 4.84335 165.646 4.99774C165.774 5.14976 165.872 5.29941 165.938 5.44668H165.984V2.70319H167.499V10.0002H166.002V9.12366H165.938C165.867 9.27568 165.766 9.42651 165.635 9.57616C165.507 9.72343 165.339 9.84576 165.133 9.94315C164.929 10.0405 164.679 10.0892 164.385 10.0892ZM164.866 8.88138C165.11 8.88138 165.317 8.81487 165.486 8.68185C165.657 8.54646 165.787 8.35762 165.877 8.11534C165.97 7.87306 166.016 7.58921 166.016 7.26379C166.016 6.93837 165.971 6.65571 165.881 6.4158C165.791 6.1759 165.66 5.99062 165.489 5.85998C165.318 5.72934 165.11 5.66402 164.866 5.66402C164.616 5.66402 164.406 5.73171 164.235 5.86711C164.064 6.0025 163.934 6.19015 163.847 6.43006C163.759 6.66996 163.715 6.94787 163.715 7.26379C163.715 7.58208 163.759 7.86356 163.847 8.10822C163.937 8.3505 164.066 8.54052 164.235 8.67829C164.406 8.81368 164.616 8.88138 164.866 8.88138Z" fill="#939393"/>
<path d="M228.848 20.1754V27.4724H227.305V21.6398H227.263L225.592 22.6873V21.3192L227.398 20.1754H228.848ZM233.304 27.5722C232.756 27.5722 232.268 27.4831 231.84 27.305C231.415 27.1244 231.081 26.8786 230.839 26.5674C230.597 26.2563 230.475 25.9035 230.475 25.5092C230.475 25.2052 230.544 24.9261 230.682 24.6719C230.822 24.4154 231.012 24.2028 231.252 24.0341C231.492 23.8631 231.761 23.7539 232.057 23.7064V23.6565C231.668 23.5781 231.352 23.3892 231.11 23.09C230.867 22.7883 230.746 22.4379 230.746 22.0389C230.746 21.6612 230.857 21.3251 231.078 21.0306C231.299 20.7336 231.601 20.5009 231.986 20.3322C232.373 20.1612 232.813 20.0757 233.304 20.0757C233.796 20.0757 234.234 20.1612 234.619 20.3322C235.006 20.5032 235.31 20.7372 235.531 21.0341C235.752 21.3287 235.864 21.6636 235.866 22.0389C235.864 22.4403 235.74 22.7907 235.496 23.09C235.251 23.3892 234.938 23.5781 234.555 23.6565V23.7064C234.847 23.7539 235.112 23.8631 235.35 24.0341C235.59 24.2028 235.78 24.4154 235.92 24.6719C236.062 24.9261 236.135 25.2052 236.137 25.5092C236.135 25.9035 236.012 26.2563 235.77 26.5674C235.528 26.8786 235.193 27.1244 234.765 27.305C234.34 27.4831 233.853 27.5722 233.304 27.5722ZM233.304 26.4392C233.549 26.4392 233.763 26.3952 233.946 26.3073C234.129 26.2171 234.271 26.0935 234.373 25.9368C234.478 25.7776 234.53 25.5947 234.53 25.3881C234.53 25.1767 234.477 24.9902 234.37 24.8287C234.263 24.6648 234.118 24.5365 233.935 24.4439C233.752 24.3489 233.542 24.3014 233.304 24.3014C233.069 24.3014 232.859 24.3489 232.674 24.4439C232.489 24.5365 232.342 24.6648 232.236 24.8287C232.131 24.9902 232.079 25.1767 232.079 25.3881C232.079 25.5947 232.13 25.7776 232.232 25.9368C232.334 26.0935 232.478 26.2171 232.663 26.3073C232.848 26.3952 233.062 26.4392 233.304 26.4392ZM233.304 23.179C233.509 23.179 233.69 23.1375 233.85 23.0543C234.009 22.9712 234.133 22.856 234.224 22.7087C234.314 22.5615 234.359 22.3916 234.359 22.1992C234.359 22.0092 234.314 21.8429 234.224 21.7004C234.133 21.5555 234.01 21.4427 233.853 21.3619C233.696 21.2788 233.514 21.2372 233.304 21.2372C233.098 21.2372 232.915 21.2788 232.756 21.3619C232.597 21.4427 232.472 21.5555 232.382 21.7004C232.294 21.8429 232.25 22.0092 232.25 22.1992C232.25 22.3916 232.295 22.5615 232.385 22.7087C232.475 22.856 232.6 22.9712 232.759 23.0543C232.918 23.1375 233.1 23.179 233.304 23.179Z" fill="#2E2E30"/>
<path d="M220.392 3.97517V2.70319H226.385V3.97517H224.151V10.0002H222.626V3.97517H220.392ZM228.861 6.83624V10.0002H227.344V2.70319H228.819V5.493H228.883C229.006 5.16995 229.206 4.91698 229.481 4.73408C229.757 4.54881 230.103 4.45617 230.518 4.45617C230.898 4.45617 231.23 4.53931 231.512 4.70558C231.797 4.86948 232.018 5.10582 232.175 5.41461C232.334 5.72103 232.413 6.08801 232.41 6.51557V10.0002H230.892V6.78635C230.895 6.44906 230.809 6.18659 230.636 5.99894C230.465 5.81129 230.225 5.71746 229.916 5.71746C229.709 5.71746 229.527 5.76141 229.367 5.84929C229.211 5.93718 229.087 6.06545 228.997 6.23409C228.909 6.40037 228.864 6.60108 228.861 6.83624ZM237.114 7.66997V4.52743H238.632V10.0002H237.175V9.00608H237.118C236.994 9.32675 236.789 9.58447 236.501 9.77925C236.216 9.97402 235.868 10.0714 235.457 10.0714C235.092 10.0714 234.77 9.98828 234.492 9.822C234.214 9.65573 233.997 9.41939 233.84 9.11297C233.685 8.80656 233.607 8.43957 233.605 8.01202V4.52743H235.122V7.74123C235.125 8.06427 235.212 8.31962 235.383 8.50727C235.554 8.69492 235.783 8.78874 236.07 8.78874C236.253 8.78874 236.424 8.74717 236.583 8.66404C236.742 8.57853 236.871 8.45264 236.968 8.28636C237.068 8.12009 237.117 7.91463 237.114 7.66997Z" fill="#939393"/>
<path d="M294.598 20.1754V27.4724H293.055V21.6398H293.013L291.342 22.6873V21.3192L293.148 20.1754H294.598ZM298.973 20.0757C299.348 20.0757 299.709 20.1386 300.056 20.2645C300.405 20.3904 300.716 20.5911 300.989 20.8667C301.265 21.1422 301.482 21.508 301.641 21.9641C301.803 22.4177 301.885 22.9748 301.887 23.6351C301.887 24.2551 301.817 24.8085 301.677 25.2954C301.539 25.78 301.341 26.1921 301.082 26.5318C300.823 26.8715 300.511 27.1304 300.145 27.3085C299.779 27.4843 299.37 27.5722 298.919 27.5722C298.432 27.5722 298.002 27.4784 297.629 27.2907C297.256 27.1007 296.956 26.843 296.728 26.5175C296.502 26.1897 296.366 25.8216 296.318 25.413H297.84C297.899 25.6791 298.024 25.8857 298.214 26.033C298.404 26.1779 298.639 26.2503 298.919 26.2503C299.394 26.2503 299.755 26.0437 300.002 25.6304C300.249 25.2147 300.374 24.6458 300.376 23.9237H300.326C300.217 24.1375 300.07 24.3216 299.885 24.476C299.699 24.628 299.487 24.7456 299.247 24.8287C299.009 24.9118 298.756 24.9534 298.488 24.9534C298.058 24.9534 297.674 24.8524 297.337 24.6505C297 24.4486 296.734 24.1707 296.539 23.8168C296.344 23.4629 296.247 23.0591 296.247 22.6054C296.244 22.1161 296.357 21.6802 296.585 21.2978C296.813 20.9154 297.132 20.6161 297.54 20.3999C297.951 20.1814 298.429 20.0733 298.973 20.0757ZM298.983 21.2871C298.743 21.2871 298.53 21.3441 298.342 21.4581C298.157 21.5721 298.009 21.7253 297.9 21.9177C297.793 22.1101 297.741 22.3251 297.743 22.5626C297.743 22.8025 297.796 23.0187 297.9 23.2111C298.007 23.4011 298.152 23.5531 298.335 23.6672C298.52 23.7788 298.731 23.8346 298.969 23.8346C299.147 23.8346 299.312 23.8014 299.464 23.7349C299.616 23.6683 299.748 23.5769 299.86 23.4605C299.974 23.3417 300.063 23.2052 300.127 23.0508C300.191 22.8964 300.223 22.7325 300.223 22.5591C300.221 22.3287 300.166 22.1173 300.059 21.9249C299.952 21.7325 299.805 21.5781 299.617 21.4617C299.43 21.3453 299.218 21.2871 298.983 21.2871Z" fill="#2E2E30"/>
<path d="M290.021 10.0002V2.70319H294.853V3.97517H291.564V5.7139H294.532V6.98588H291.564V10.0002H290.021ZM295.774 10.0002V4.52743H297.245V5.48231H297.302C297.402 5.14264 297.57 4.8861 297.805 4.71271C298.04 4.53693 298.311 4.44905 298.617 4.44905C298.693 4.44905 298.775 4.4538 298.863 4.4633C298.951 4.4728 299.028 4.48586 299.095 4.50249V5.84929C299.023 5.82791 298.925 5.80891 298.799 5.79228C298.673 5.77566 298.558 5.76734 298.453 5.76734C298.23 5.76734 298.03 5.81604 297.855 5.91343C297.681 6.00844 297.543 6.14146 297.441 6.31248C297.342 6.4835 297.292 6.68065 297.292 6.90393V10.0002H295.774ZM299.879 10.0002V4.52743H301.397V10.0002H299.879ZM300.642 3.82196C300.416 3.82196 300.223 3.74714 300.061 3.5975C299.902 3.44548 299.822 3.26376 299.822 3.05236C299.822 2.84333 299.902 2.664 300.061 2.51435C300.223 2.36233 300.416 2.28632 300.642 2.28632C300.867 2.28632 301.06 2.36233 301.219 2.51435C301.38 2.664 301.461 2.84333 301.461 3.05236C301.461 3.26376 301.38 3.44548 301.219 3.5975C301.06 3.74714 300.867 3.82196 300.642 3.82196Z" fill="#939393"/>
<path d="M349.591 27.5028V26.3912L352.189 23.9862C352.41 23.7724 352.595 23.58 352.745 23.409C352.897 23.2379 353.012 23.0705 353.09 22.9066C353.169 22.7403 353.208 22.561 353.208 22.3686C353.208 22.1548 353.159 21.9707 353.062 21.8163C352.964 21.6595 352.831 21.5396 352.663 21.4564C352.494 21.3709 352.303 21.3282 352.089 21.3282C351.866 21.3282 351.671 21.3733 351.505 21.4636C351.338 21.5538 351.21 21.6833 351.12 21.8519C351.03 22.0206 350.985 22.2213 350.985 22.4541H349.52C349.52 21.9766 349.628 21.5621 349.844 21.2106C350.061 20.8591 350.363 20.5871 350.753 20.3947C351.143 20.2023 351.591 20.1061 352.1 20.1061C352.622 20.1061 353.077 20.1987 353.464 20.384C353.854 20.5669 354.157 20.8211 354.373 21.1465C354.589 21.4719 354.697 21.8448 354.697 22.2652C354.697 22.5408 354.643 22.8128 354.533 23.0812C354.426 23.3496 354.235 23.6477 353.96 23.9755C353.684 24.3009 353.296 24.6916 352.795 25.1477L351.729 26.1916V26.2415H354.793V27.5028H349.591ZM358.772 27.6631C358.16 27.6608 357.632 27.5099 357.19 27.2106C356.751 26.9114 356.412 26.4779 356.175 25.9102C355.94 25.3425 355.823 24.6596 355.826 23.8615C355.826 23.0657 355.943 22.3876 356.178 21.827C356.416 21.2664 356.755 20.8401 357.194 20.5479C357.636 20.2534 358.162 20.1061 358.772 20.1061C359.383 20.1061 359.908 20.2534 360.347 20.5479C360.789 20.8424 361.129 21.27 361.366 21.8306C361.604 22.3888 361.721 23.0657 361.719 23.8615C361.719 24.6619 361.6 25.346 361.363 25.9137C361.127 26.4814 360.79 26.9149 360.351 27.2142C359.911 27.5135 359.385 27.6631 358.772 27.6631ZM358.772 26.384C359.19 26.384 359.524 26.1738 359.774 25.7534C360.023 25.333 360.146 24.7023 360.144 23.8615C360.144 23.308 360.087 22.8472 359.973 22.479C359.861 22.1108 359.702 21.8341 359.496 21.6488C359.291 21.4636 359.05 21.3709 358.772 21.3709C358.357 21.3709 358.024 21.5788 357.775 21.9945C357.525 22.4101 357.399 23.0325 357.397 23.8615C357.397 24.422 357.453 24.89 357.564 25.2653C357.679 25.6382 357.839 25.9185 358.045 26.1061C358.252 26.2914 358.494 26.384 358.772 26.384Z" fill="#2E2E30"/>
<path d="M352.3 4.80178C352.272 4.51437 352.15 4.29109 351.933 4.13194C351.717 3.97279 351.424 3.89322 351.053 3.89322C350.802 3.89322 350.589 3.92885 350.416 4.00011C350.242 4.069 350.109 4.1652 350.017 4.28871C349.926 4.41223 349.881 4.55237 349.881 4.70914C349.876 4.83978 349.904 4.9538 349.963 5.05119C350.025 5.14858 350.109 5.2329 350.216 5.30416C350.323 5.37304 350.446 5.43361 350.587 5.48587C350.727 5.53575 350.876 5.57851 351.036 5.61414L351.691 5.77091C352.009 5.84217 352.302 5.93718 352.568 6.05594C352.834 6.17471 353.064 6.32079 353.259 6.49419C353.454 6.66759 353.604 6.87186 353.711 7.10702C353.821 7.34218 353.876 7.61178 353.879 7.91582C353.876 8.36237 353.762 8.74955 353.537 9.07734C353.314 9.40276 352.99 9.65573 352.568 9.83626C352.147 10.0144 351.64 10.1035 351.046 10.1035C350.457 10.1035 349.944 10.0132 349.507 9.83269C349.072 9.65217 348.733 9.38495 348.488 9.03102C348.246 8.67473 348.119 8.23411 348.107 7.70916H349.6C349.616 7.95382 349.686 8.1581 349.81 8.32199C349.936 8.48352 350.103 8.60584 350.312 8.68898C350.524 8.76974 350.762 8.81012 351.028 8.81012C351.29 8.81012 351.517 8.77212 351.709 8.69611C351.904 8.6201 352.055 8.51439 352.161 8.379C352.268 8.24361 352.322 8.08803 352.322 7.91225C352.322 7.74836 352.273 7.61059 352.176 7.49895C352.081 7.38731 351.941 7.2923 351.755 7.21391C351.572 7.13552 351.348 7.06427 351.082 7.00013L350.287 6.80061C349.672 6.65096 349.186 6.41699 348.83 6.0987C348.474 5.78041 348.297 5.35166 348.299 4.81247C348.297 4.37066 348.414 3.98467 348.652 3.6545C348.892 3.32433 349.221 3.06661 349.639 2.88134C350.057 2.69606 350.532 2.60343 351.064 2.60343C351.606 2.60343 352.078 2.69606 352.482 2.88134C352.888 3.06661 353.204 3.32433 353.43 3.6545C353.656 3.98467 353.772 4.3671 353.779 4.80178H352.3ZM356.449 10.1035C356.099 10.1035 355.788 10.0429 355.515 9.92177C355.242 9.79825 355.026 9.61654 354.867 9.37663C354.71 9.13435 354.632 8.83269 354.632 8.47164C354.632 8.1676 354.687 7.91225 354.799 7.7056C354.911 7.49895 355.063 7.33268 355.255 7.20678C355.447 7.08089 355.666 6.98588 355.911 6.92175C356.158 6.85761 356.417 6.81248 356.687 6.78635C357.006 6.7531 357.262 6.72222 357.457 6.69372C357.652 6.66284 357.793 6.61771 357.881 6.55832C357.969 6.49894 358.013 6.41105 358.013 6.29466V6.27329C358.013 6.04763 357.942 5.87305 357.799 5.74953C357.659 5.62601 357.459 5.56425 357.2 5.56425C356.927 5.56425 356.71 5.62483 356.548 5.74597C356.387 5.86473 356.28 6.01438 356.228 6.1949L354.824 6.08089C354.895 5.74834 355.035 5.46093 355.244 5.21865C355.453 4.97399 355.723 4.78634 356.053 4.6557C356.386 4.52268 356.77 4.45617 357.208 4.45617C357.512 4.45617 357.803 4.4918 358.08 4.56306C358.361 4.63432 358.609 4.74477 358.825 4.89442C359.044 5.04406 359.216 5.23646 359.342 5.47162C359.468 5.7044 359.531 5.9835 359.531 6.30892V10.0002H358.091V9.24124H358.048C357.961 9.41226 357.843 9.56309 357.696 9.69374C357.548 9.822 357.371 9.92295 357.165 9.99659C356.958 10.0678 356.719 10.1035 356.449 10.1035ZM356.883 9.05597C357.107 9.05597 357.304 9.01202 357.475 8.92414C357.646 8.83387 357.78 8.71273 357.877 8.56071C357.975 8.40869 358.023 8.23648 358.023 8.04408V7.46332C357.976 7.4942 357.911 7.5227 357.827 7.54883C357.747 7.57258 357.655 7.59515 357.553 7.61653C357.451 7.63553 357.349 7.65334 357.247 7.66997C357.145 7.68422 357.052 7.69729 356.969 7.70916C356.791 7.73529 356.635 7.77686 356.502 7.83387C356.369 7.89087 356.266 7.96807 356.192 8.06546C356.118 8.16047 356.082 8.27924 356.082 8.42176C356.082 8.62841 356.156 8.78637 356.306 8.89563C356.458 9.00252 356.651 9.05597 356.883 9.05597ZM363.619 4.52743V5.66758H360.323V4.52743H363.619ZM361.072 3.21626H362.589V8.31843C362.589 8.45857 362.611 8.56784 362.654 8.64622C362.696 8.72223 362.756 8.77568 362.832 8.80656C362.91 8.83744 363 8.85288 363.102 8.85288C363.174 8.85288 363.245 8.84694 363.316 8.83506C363.388 8.82081 363.442 8.81012 363.48 8.80299L363.719 9.93246C363.643 9.95621 363.536 9.98353 363.398 10.0144C363.26 10.0477 363.093 10.0678 362.896 10.075C362.53 10.0892 362.209 10.0405 361.934 9.92889C361.661 9.81725 361.448 9.64386 361.296 9.4087C361.144 9.17354 361.069 8.87663 361.072 8.51796V3.21626Z" fill="#939393"/>
<line opacity="0.5" x1="21.4718" y1="185.556" x2="21.4718" y2="48.2769" stroke="#B1B1B1" stroke-width="0.501666"/>
<line opacity="0.5" x1="225.288" y1="185.556" x2="225.288" y2="48.2769" stroke="#B1B1B1" stroke-width="0.501666"/>
<line opacity="0.5" x1="91.0507" y1="185.556" x2="91.0507" y2="48.2769" stroke="#B1B1B1" stroke-width="0.501666"/>
<line x1="294.867" y1="185.556" x2="294.867" y2="48.2769" stroke="#001DFF" stroke-width="0.501666"/>
<line opacity="0.5" x1="160.63" y1="185.556" x2="160.63" y2="48.2769" stroke="#B1B1B1" stroke-width="0.501666"/>
<line opacity="0.5" x1="364.446" y1="185.556" x2="364.446" y2="48.2769" stroke="#B1B1B1" stroke-width="0.501666"/>
<g filter="url(#filter0_d_3172_1308)">
<path d="M4 69.8383V184.09H338.147V91.5249C330.897 84.296 314.618 68.887 307.5 65.082C298.603 60.3258 295.637 72.5905 280.808 91.5249C268.945 106.672 255.434 97.8364 250.162 91.5249L224.458 80.2622C219.185 86.2582 207.059 95.5665 200.732 84.8326C194.405 74.0987 178.982 70.3639 172.062 69.8383C163.615 74.3467 143.89 84.9958 132.572 91.5249C118.424 99.6863 113.886 90.7088 101.606 80.2622C89.3272 69.8156 75.9801 82.3842 67.705 84.8326C59.4298 87.281 51.1546 75.3654 49.286 72.5905C47.4175 69.8156 36.4729 73.4067 30.8671 72.5905C26.3825 71.9376 24.7338 63.6525 18.4444 64.0798L4 69.8383Z" fill="url(#paint0_linear_3172_1308)"/>
</g>
<path d="M4 69.8383L18.4444 64.0798C24.7338 63.6525 26.3825 71.9376 30.8671 72.5905C36.4729 73.4067 47.4175 69.8156 49.286 72.5905C51.1546 75.3654 59.4298 87.281 67.705 84.8326C75.9801 82.3842 89.3272 69.8156 101.606 80.2622C113.886 90.7088 118.424 99.6863 132.572 91.5249C143.89 84.9958 163.615 74.3467 172.062 69.8383C178.982 70.3639 194.405 74.0987 200.732 84.8326C207.059 95.5665 219.185 86.2582 224.458 80.2622L250.162 91.5249C255.434 97.8364 268.945 106.672 280.808 91.5249C295.637 72.5905 298.603 60.3258 307.5 65.082C314.618 68.887 330.897 84.296 338.147 91.5249" stroke="#B87C4C" stroke-width="1.00333"/>
<ellipse cx="297.424" cy="30.6094" rx="2.58805" ry="1.58253" fill="#B87C4C"/>
<g filter="url(#filter1_d_3172_1308)">
<rect x="184.469" y="42.8832" width="204.531" height="17.7668" rx="5.01666" fill="white"/>
</g>
<path d="M200.948 47.7209V55.0179H199.405V49.1853H199.362L197.691 50.2328V48.8646L199.498 47.7209H200.948ZM205.857 47.7209V55.0179H204.314V49.1853H204.271L202.6 50.2328V48.8646L204.407 47.7209H205.857ZM207.591 55.0179V53.9062L210.188 51.5012C210.409 51.2875 210.595 51.0951 210.744 50.924C210.896 50.753 211.011 50.5855 211.09 50.4217C211.168 50.2554 211.207 50.076 211.207 49.8836C211.207 49.6699 211.159 49.4858 211.061 49.3314C210.964 49.1746 210.831 49.0547 210.662 48.9715C210.494 48.886 210.302 48.8433 210.089 48.8433C209.865 48.8433 209.671 48.8884 209.504 48.9786C209.338 49.0689 209.21 49.1984 209.119 49.367C209.029 49.5357 208.984 49.7364 208.984 49.9692H207.52C207.52 49.4917 207.628 49.0772 207.844 48.7257C208.06 48.3741 208.363 48.1022 208.752 47.9098C209.142 47.7174 209.591 47.6212 210.099 47.6212C210.622 47.6212 211.077 47.7138 211.464 47.8991C211.853 48.082 212.156 48.3361 212.372 48.6615C212.589 48.987 212.697 49.3599 212.697 49.7803C212.697 50.0559 212.642 50.3278 212.533 50.5962C212.426 50.8646 212.235 51.1627 211.959 51.4905C211.684 51.816 211.295 52.2067 210.794 52.6628L209.729 53.7067V53.7566H212.793V55.0179H207.591Z" fill="#B87C4C"/>
<path d="M214.812 54.1699C214.577 54.1699 214.375 54.0868 214.206 53.9205C214.04 53.7542 213.957 53.5523 213.957 53.3148C213.957 53.082 214.04 52.8825 214.206 52.7162C214.375 52.5499 214.577 52.4668 214.812 52.4668C215.04 52.4668 215.24 52.5499 215.411 52.7162C215.582 52.8825 215.667 53.082 215.667 53.3148C215.667 53.4716 215.627 53.6153 215.546 53.7459C215.468 53.8742 215.364 53.9775 215.236 54.0559C215.108 54.1319 214.967 54.1699 214.812 54.1699ZM214.812 50.5891C214.577 50.5891 214.375 50.506 214.206 50.3397C214.04 50.1734 213.957 49.9715 213.957 49.734C213.957 49.5012 214.04 49.3029 214.206 49.139C214.375 48.9727 214.577 48.8896 214.812 48.8896C215.04 48.8896 215.24 48.9727 215.411 49.139C215.582 49.3029 215.667 49.5012 215.667 49.734C215.667 49.8931 215.627 50.038 215.546 50.1687C215.468 50.2969 215.364 50.3991 215.236 50.4751C215.108 50.5511 214.967 50.5891 214.812 50.5891Z" fill="#344BFD"/>
<path d="M219.264 55.0179V47.7209H222.143C222.696 47.7209 223.168 47.8266 223.557 48.038C223.947 48.2471 224.244 48.538 224.448 48.911C224.655 49.2815 224.758 49.7091 224.758 50.1936C224.758 50.6782 224.654 51.1057 224.445 51.4763C224.236 51.8468 223.933 52.1354 223.536 52.3421C223.142 52.5487 222.664 52.6521 222.104 52.6521H220.269V51.4157H221.854C222.151 51.4157 222.396 51.3647 222.588 51.2625C222.783 51.158 222.928 51.0143 223.023 50.8314C223.12 50.6461 223.169 50.4335 223.169 50.1936C223.169 49.9513 223.12 49.7399 223.023 49.5594C222.928 49.3765 222.783 49.2352 222.588 49.1354C222.394 49.0333 222.147 48.9822 221.847 48.9822H220.807V55.0179H219.264ZM227.145 55.1212C226.796 55.1212 226.485 55.0606 226.212 54.9395C225.939 54.816 225.723 54.6343 225.563 54.3944C225.407 54.1521 225.328 53.8504 225.328 53.4894C225.328 53.1853 225.384 52.93 225.496 52.7233C225.607 52.5167 225.759 52.3504 225.952 52.2245C226.144 52.0986 226.363 52.0036 226.607 51.9395C226.854 51.8753 227.113 51.8302 227.384 51.8041C227.702 51.7708 227.959 51.74 228.154 51.7114C228.348 51.6806 228.49 51.6354 228.578 51.5761C228.666 51.5167 228.71 51.4288 228.71 51.3124V51.291C228.71 51.0654 228.638 50.8908 228.496 50.7673C228.356 50.6437 228.156 50.582 227.897 50.582C227.624 50.582 227.407 50.6426 227.245 50.7637C227.084 50.8825 226.977 51.0321 226.924 51.2126L225.521 51.0986C225.592 50.7661 225.732 50.4787 225.941 50.2364C226.15 49.9917 226.42 49.8041 226.75 49.6734C227.082 49.5404 227.467 49.4739 227.904 49.4739C228.208 49.4739 228.499 49.5095 228.777 49.5808C229.058 49.6521 229.306 49.7625 229.522 49.9121C229.74 50.0618 229.913 50.2542 230.039 50.4893C230.164 50.7221 230.227 51.0012 230.227 51.3266V55.0179H228.788V54.259H228.745C228.657 54.43 228.54 54.5808 228.392 54.7115C228.245 54.8397 228.068 54.9407 227.862 55.0143C227.655 55.0856 227.416 55.1212 227.145 55.1212ZM227.58 54.0737C227.803 54.0737 228 54.0298 228.172 53.9419C228.343 53.8516 228.477 53.7305 228.574 53.5784C228.672 53.4264 228.72 53.2542 228.72 53.0618V52.481C228.673 52.5119 228.607 52.5404 228.524 52.5666C228.443 52.5903 228.352 52.6129 228.25 52.6343C228.148 52.6533 228.046 52.6711 227.943 52.6877C227.841 52.702 227.749 52.715 227.666 52.7269C227.487 52.753 227.332 52.7946 227.199 52.8516C227.066 52.9086 226.962 52.9858 226.889 53.0832C226.815 53.1782 226.778 53.297 226.778 53.4395C226.778 53.6461 226.853 53.8041 227.003 53.9134C227.155 54.0203 227.347 54.0737 227.58 54.0737ZM234.316 49.5452V50.6853H231.02V49.5452H234.316ZM231.768 48.234H233.286V53.3362C233.286 53.4763 233.308 53.5856 233.35 53.664C233.393 53.74 233.452 53.7934 233.528 53.8243C233.607 53.8552 233.697 53.8706 233.799 53.8706C233.87 53.8706 233.942 53.8647 234.013 53.8528C234.084 53.8385 234.139 53.8279 234.177 53.8207L234.416 54.9502C234.34 54.9739 234.233 55.0013 234.095 55.0321C233.957 55.0654 233.79 55.0856 233.593 55.0927C233.227 55.107 232.906 55.0583 232.631 54.9466C232.357 54.835 232.145 54.6616 231.993 54.4264C231.841 54.1913 231.766 53.8944 231.768 53.5357V48.234ZM235.305 55.0179V49.5452H236.822V55.0179H235.305ZM236.067 48.8397C235.841 48.8397 235.648 48.7649 235.486 48.6152C235.327 48.4632 235.248 48.2815 235.248 48.0701C235.248 47.8611 235.327 47.6817 235.486 47.5321C235.648 47.3801 235.841 47.3041 236.067 47.3041C236.293 47.3041 236.485 47.3801 236.644 47.5321C236.806 47.6817 236.887 47.8611 236.887 48.0701C236.887 48.2815 236.806 48.4632 236.644 48.6152C236.485 48.7649 236.293 48.8397 236.067 48.8397ZM240.532 55.1248C239.969 55.1248 239.485 55.0108 239.079 54.7827C238.675 54.5523 238.364 54.2269 238.145 53.8065C237.927 53.3837 237.817 52.8837 237.817 52.3065C237.817 51.7435 237.927 51.2494 238.145 50.8243C238.364 50.3991 238.671 50.0677 239.068 49.8302C239.467 49.5927 239.935 49.4739 240.472 49.4739C240.833 49.4739 241.169 49.5321 241.48 49.6485C241.794 49.7625 242.067 49.9347 242.3 50.1651C242.535 50.3955 242.718 50.6853 242.848 51.0345C242.979 51.3813 243.044 51.7875 243.044 52.253V52.6699H238.423V51.7293H241.615C241.615 51.5107 241.568 51.3171 241.473 51.1485C241.378 50.9799 241.246 50.848 241.077 50.753C240.911 50.6556 240.718 50.6069 240.497 50.6069C240.266 50.6069 240.062 50.6604 239.884 50.7673C239.708 50.8718 239.57 51.0131 239.471 51.1913C239.371 51.367 239.32 51.563 239.317 51.7791V52.6734C239.317 52.9442 239.367 53.1782 239.467 53.3754C239.569 53.5725 239.713 53.7245 239.898 53.8314C240.083 53.9383 240.303 53.9917 240.557 53.9917C240.726 53.9917 240.88 53.968 241.02 53.9205C241.161 53.873 241.281 53.8017 241.38 53.7067C241.48 53.6117 241.556 53.4953 241.608 53.3575L243.012 53.4502C242.941 53.7875 242.795 54.082 242.574 54.3338C242.355 54.5832 242.073 54.778 241.726 54.9181C241.382 55.0559 240.984 55.1248 240.532 55.1248ZM245.553 51.854V55.0179H244.035V49.5452H245.481V50.5107H245.545C245.667 50.1924 245.87 49.9407 246.155 49.7554C246.44 49.5677 246.785 49.4739 247.192 49.4739C247.572 49.4739 247.903 49.557 248.186 49.7233C248.468 49.8896 248.688 50.1271 248.845 50.4359C249.002 50.7423 249.08 51.1081 249.08 51.5333V55.0179H247.562V51.8041C247.564 51.4692 247.479 51.2079 247.306 51.0202C247.132 50.8302 246.893 50.7352 246.589 50.7352C246.385 50.7352 246.205 50.7791 246.048 50.867C245.893 50.9549 245.772 51.0832 245.684 51.2518C245.599 51.4181 245.555 51.6188 245.553 51.854ZM253.187 49.5452V50.6853H249.891V49.5452H253.187ZM250.64 48.234H252.157V53.3362C252.157 53.4763 252.179 53.5856 252.222 53.664C252.264 53.74 252.324 53.7934 252.4 53.8243C252.478 53.8552 252.568 53.8706 252.671 53.8706C252.742 53.8706 252.813 53.8647 252.884 53.8528C252.956 53.8385 253.01 53.8279 253.048 53.8207L253.287 54.9502C253.211 54.9739 253.104 55.0013 252.966 55.0321C252.828 55.0654 252.661 55.0856 252.464 55.0927C252.098 55.107 251.777 55.0583 251.502 54.9466C251.229 54.835 251.016 54.6616 250.864 54.4264C250.712 54.1913 250.637 53.8944 250.64 53.5357V48.234ZM256.527 55.0179V47.7209H261.358V48.9929H258.069V50.7316H261.037V52.0036H258.069V55.0179H256.527ZM263.885 47.7209V55.0179H262.367V47.7209H263.885ZM267.574 55.1248C267.02 55.1248 266.541 55.0072 266.138 54.772C265.736 54.5345 265.426 54.2043 265.208 53.7815C264.989 53.3564 264.88 52.8635 264.88 52.3029C264.88 51.7376 264.989 51.2435 265.208 50.8207C265.426 50.3955 265.736 50.0654 266.138 49.8302C266.541 49.5927 267.02 49.4739 267.574 49.4739C268.127 49.4739 268.604 49.5927 269.006 49.8302C269.41 50.0654 269.721 50.3955 269.939 50.8207C270.158 51.2435 270.267 51.7376 270.267 52.3029C270.267 52.8635 270.158 53.3564 269.939 53.7815C269.721 54.2043 269.41 54.5345 269.006 54.772C268.604 55.0072 268.127 55.1248 267.574 55.1248ZM267.581 53.949C267.832 53.949 268.043 53.8777 268.211 53.7352C268.38 53.5903 268.507 53.3932 268.593 53.1438C268.68 52.8944 268.724 52.6105 268.724 52.2922C268.724 51.9739 268.68 51.6901 268.593 51.4407C268.507 51.1913 268.38 50.9941 268.211 50.8492C268.043 50.7043 267.832 50.6319 267.581 50.6319C267.326 50.6319 267.113 50.7043 266.939 50.8492C266.768 50.9941 266.639 51.1913 266.551 51.4407C266.465 51.6901 266.423 51.9739 266.423 52.2922C266.423 52.6105 266.465 52.8944 266.551 53.1438C266.639 53.3932 266.768 53.5903 266.939 53.7352C267.113 53.8777 267.326 53.949 267.581 53.949ZM272.196 55.0179L270.707 49.5452H272.243L273.091 53.2221H273.141L274.024 49.5452H275.531L276.429 53.2008H276.476L277.309 49.5452H278.841L277.356 55.0179H275.749L274.808 51.5761H274.74L273.8 55.0179H272.196ZM281.724 48.9929V47.7209H287.717V48.9929H285.483V55.0179H283.958V48.9929H281.724ZM290.354 55.1248C289.801 55.1248 289.322 55.0072 288.918 54.772C288.517 54.5345 288.207 54.2043 287.988 53.7815C287.77 53.3564 287.661 52.8635 287.661 52.3029C287.661 51.7376 287.77 51.2435 287.988 50.8207C288.207 50.3955 288.517 50.0654 288.918 49.8302C289.322 49.5927 289.801 49.4739 290.354 49.4739C290.908 49.4739 291.385 49.5927 291.787 49.8302C292.19 50.0654 292.502 50.3955 292.72 50.8207C292.939 51.2435 293.048 51.7376 293.048 52.3029C293.048 52.8635 292.939 53.3564 292.72 53.7815C292.502 54.2043 292.19 54.5345 291.787 54.772C291.385 55.0072 290.908 55.1248 290.354 55.1248ZM290.361 53.949C290.613 53.949 290.823 53.8777 290.992 53.7352C291.161 53.5903 291.288 53.3932 291.373 53.1438C291.461 52.8944 291.505 52.6105 291.505 52.2922C291.505 51.9739 291.461 51.6901 291.373 51.4407C291.288 51.1913 291.161 50.9941 290.992 50.8492C290.823 50.7043 290.613 50.6319 290.361 50.6319C290.107 50.6319 289.893 50.7043 289.72 50.8492C289.549 50.9941 289.42 51.1913 289.332 51.4407C289.246 51.6901 289.203 51.9739 289.203 52.2922C289.203 52.6105 289.246 52.8944 289.332 53.1438C289.42 53.3932 289.549 53.5903 289.72 53.7352C289.893 53.8777 290.107 53.949 290.361 53.949ZM296.051 55.107C295.636 55.107 295.259 55.0001 294.922 54.7863C294.587 54.5701 294.321 54.253 294.124 53.835C293.929 53.4145 293.832 52.8991 293.832 52.2886C293.832 51.6616 293.933 51.1402 294.135 50.7245C294.336 50.3064 294.605 49.9941 294.94 49.7874C295.277 49.5784 295.646 49.4739 296.048 49.4739C296.354 49.4739 296.61 49.5262 296.814 49.6307C297.021 49.7328 297.187 49.8611 297.313 50.0155C297.441 50.1675 297.538 50.3171 297.605 50.4644H297.651V47.7209H299.165V55.0179H297.669V54.1414H297.605C297.534 54.2934 297.433 54.4442 297.302 54.5939C297.174 54.7412 297.006 54.8635 296.8 54.9609C296.595 55.0583 296.346 55.107 296.051 55.107ZM296.532 53.8991C296.777 53.8991 296.984 53.8326 297.152 53.6996C297.323 53.5642 297.454 53.3754 297.544 53.1331C297.637 52.8908 297.683 52.6069 297.683 52.2815C297.683 51.9561 297.638 51.6734 297.548 51.4335C297.458 51.1936 297.327 51.0084 297.156 50.8777C296.985 50.7471 296.777 50.6817 296.532 50.6817C296.283 50.6817 296.073 50.7494 295.902 50.8848C295.731 51.0202 295.601 51.2079 295.513 51.4478C295.426 51.6877 295.382 51.9656 295.382 52.2815C295.382 52.5998 295.426 52.8813 295.513 53.1259C295.604 53.3682 295.733 53.5583 295.902 53.696C296.073 53.8314 296.283 53.8991 296.532 53.8991ZM301.974 55.1212C301.625 55.1212 301.314 55.0606 301.04 54.9395C300.767 54.816 300.551 54.6343 300.392 54.3944C300.235 54.1521 300.157 53.8504 300.157 53.4894C300.157 53.1853 300.213 52.93 300.324 52.7233C300.436 52.5167 300.588 52.3504 300.78 52.2245C300.973 52.0986 301.191 52.0036 301.436 51.9395C301.683 51.8753 301.942 51.8302 302.213 51.8041C302.531 51.7708 302.788 51.74 302.982 51.7114C303.177 51.6806 303.318 51.6354 303.406 51.5761C303.494 51.5167 303.538 51.4288 303.538 51.3124V51.291C303.538 51.0654 303.467 50.8908 303.324 50.7673C303.184 50.6437 302.985 50.582 302.726 50.582C302.453 50.582 302.235 50.6426 302.074 50.7637C301.912 50.8825 301.805 51.0321 301.753 51.2126L300.349 51.0986C300.421 50.7661 300.561 50.4787 300.77 50.2364C300.979 49.9917 301.248 49.8041 301.579 49.6734C301.911 49.5404 302.296 49.4739 302.733 49.4739C303.037 49.4739 303.328 49.5095 303.606 49.5808C303.886 49.6521 304.134 49.7625 304.35 49.9121C304.569 50.0618 304.741 50.2542 304.867 50.4893C304.993 50.7221 305.056 51.0012 305.056 51.3266V55.0179H303.617V54.259H303.574C303.486 54.43 303.368 54.5808 303.221 54.7115C303.074 54.8397 302.897 54.9407 302.69 55.0143C302.483 55.0856 302.245 55.1212 301.974 55.1212ZM302.409 54.0737C302.632 54.0737 302.829 54.0298 303 53.9419C303.171 53.8516 303.305 53.7305 303.403 53.5784C303.5 53.4264 303.549 53.2542 303.549 53.0618V52.481C303.501 52.5119 303.436 52.5404 303.353 52.5666C303.272 52.5903 303.181 52.6129 303.079 52.6343C302.976 52.6533 302.874 52.6711 302.772 52.6877C302.67 52.702 302.577 52.715 302.494 52.7269C302.316 52.753 302.16 52.7946 302.027 52.8516C301.894 52.9086 301.791 52.9858 301.717 53.0832C301.644 53.1782 301.607 53.297 301.607 53.4395C301.607 53.6461 301.682 53.8041 301.831 53.9134C301.983 54.0203 302.176 54.0737 302.409 54.0737ZM306.975 57.0702C306.782 57.0702 306.602 57.0547 306.433 57.0238C306.267 56.9953 306.129 56.9585 306.02 56.9134L306.362 55.7804C306.54 55.835 306.7 55.8647 306.843 55.8694C306.988 55.8742 307.112 55.8409 307.217 55.7697C307.324 55.6984 307.41 55.5773 307.477 55.4062L307.566 55.1747L305.603 49.5452H307.199L308.332 53.5642H308.389L309.533 49.5452H311.14L309.013 55.6093C308.911 55.9039 308.772 56.1604 308.596 56.3789C308.422 56.5998 308.203 56.7697 307.937 56.8884C307.671 57.0096 307.35 57.0702 306.975 57.0702Z" fill="#848484"/>
<defs>
<filter id="filter0_d_3172_1308" x="0" y="62.0551" width="342.147" height="128.035" filterUnits="userSpaceOnUse" color-interpolation-filters="sRGB">
<feFlood flood-opacity="0" result="BackgroundImageFix"/>
<feColorMatrix in="SourceAlpha" type="matrix" values="0 0 0 0 0 0 0 0 0 0 0 0 0 0 0 0 0 0 127 0" result="hardAlpha"/>
<feOffset dy="2"/>
<feGaussianBlur stdDeviation="2"/>
<feComposite in2="hardAlpha" operator="out"/>
<feColorMatrix type="matrix" values="0 0 0 0 0 0 0 0 0 0 0 0 0 0 0 0 0 0 0.25 0"/>
<feBlend mode="normal" in2="BackgroundImageFix" result="effect1_dropShadow_3172_1308"/>
<feBlend mode="normal" in="SourceGraphic" in2="effect1_dropShadow_3172_1308" result="shape"/>
</filter>
<filter id="filter1_d_3172_1308" x="182.462" y="40.8765" width="208.545" height="21.7801" filterUnits="userSpaceOnUse" color-interpolation-filters="sRGB">
<feFlood flood-opacity="0" result="BackgroundImageFix"/>
<feColorMatrix in="SourceAlpha" type="matrix" values="0 0 0 0 0 0 0 0 0 0 0 0 0 0 0 0 0 0 127 0" result="hardAlpha"/>
<feOffset/>
<feGaussianBlur stdDeviation="1.00333"/>
<feComposite in2="hardAlpha" operator="out"/>
<feColorMatrix type="matrix" values="0 0 0 0 0 0 0 0 0 0 0 0 0 0 0 0 0 0 0.25 0"/>
<feBlend mode="normal" in2="BackgroundImageFix" result="effect1_dropShadow_3172_1308"/>
<feBlend mode="normal" in="SourceGraphic" in2="effect1_dropShadow_3172_1308" result="shape"/>
</filter>
<linearGradient id="paint0_linear_3172_1308" x1="171.074" y1="64.0551" x2="171.074" y2="184.09" gradientUnits="userSpaceOnUse">
<stop stop-color="#EBD9D1"/>
<stop offset="1" stop-color="#A8BBA3"/>
</linearGradient>
</defs>
</svg>
