<svg width="34" height="39" viewBox="0 0 34 39" fill="none" xmlns="http://www.w3.org/2000/svg">
<path d="M24.5556 20.2037C19.3422 20.2037 15.1111 24.3179 15.1111 29.3872C15.1111 34.4565 19.3422 38.5707 24.5556 38.5707C29.7689 38.5707 34 34.4565 34 29.3872C34 24.3179 29.7689 20.2037 24.5556 20.2037ZM27.6722 33.7034L23.6111 29.7545V23.8771H25.5V29.0015L28.9944 32.3994L27.6722 33.7034ZM26.4444 3.6734H20.4378C19.6444 1.54283 17.5667 0 15.1111 0C12.6556 0 10.5778 1.54283 9.78444 3.6734H3.77778C1.7 3.6734 0 5.32643 0 7.3468V34.8973C0 36.9177 1.7 38.5707 3.77778 38.5707H15.3189C14.2 37.5172 13.2907 36.2718 12.6367 34.8973H3.77778V7.3468H7.55556V12.8569H22.6667V7.3468H26.4444V16.6772C27.7856 16.8609 29.0511 17.2466 30.2222 17.7793V7.3468C30.2222 5.32643 28.5222 3.6734 26.4444 3.6734ZM15.1111 7.3468C14.0722 7.3468 13.2222 6.52029 13.2222 5.5101C13.2222 4.49992 14.0722 3.6734 15.1111 3.6734C16.15 3.6734 17 4.49992 17 5.5101C17 6.52029 16.15 7.3468 15.1111 7.3468Z" fill="#B87C4C"/>
</svg>
