<svg width="33" height="31" viewBox="0 0 33 31" fill="none" xmlns="http://www.w3.org/2000/svg">
<path d="M32.6883 26.4197L18.7962 1.33394C17.8115 -0.444648 15.1885 -0.444648 14.203 1.33394L0.311726 26.4197C0.0979304 26.8058 -0.00925685 27.2392 0.000626579 27.6776C0.01051 28.1161 0.137127 28.5445 0.368117 28.9211C0.599108 29.2978 0.92658 29.6097 1.31857 29.8266C1.71056 30.0434 2.15367 30.1577 2.60466 30.1584H30.3913C30.8426 30.1584 31.2862 30.0446 31.6788 29.828C32.0713 29.6115 32.3994 29.2996 32.6308 28.9228C32.8623 28.5461 32.9893 28.1174 32.9994 27.6786C33.0094 27.2399 32.9022 26.8061 32.6883 26.4197ZM16.5 26.2746C16.1776 26.2746 15.8624 26.1817 15.5943 26.0075C15.3262 25.8333 15.1172 25.5857 14.9939 25.2961C14.8705 25.0064 14.8382 24.6877 14.9011 24.3802C14.964 24.0727 15.1193 23.7902 15.3472 23.5685C15.5752 23.3468 15.8657 23.1959 16.182 23.1347C16.4982 23.0735 16.826 23.1049 17.1239 23.2249C17.4218 23.3449 17.6764 23.5481 17.8555 23.8088C18.0346 24.0694 18.1302 24.3759 18.1302 24.6894C18.1302 25.1099 17.9585 25.5131 17.6528 25.8103C17.347 26.1076 16.9324 26.2746 16.5 26.2746ZM18.2704 10.3315L17.8026 20.0012C17.8026 20.3376 17.6652 20.6601 17.4206 20.8979C17.176 21.1358 16.8443 21.2694 16.4984 21.2694C16.1525 21.2694 15.8208 21.1358 15.5762 20.8979C15.3316 20.6601 15.1942 20.3376 15.1942 20.0012L14.7263 10.3355C14.7158 10.1045 14.7532 9.87385 14.8363 9.65723C14.9194 9.44062 15.0466 9.2425 15.2101 9.07468C15.3736 8.90686 15.5702 8.77277 15.7882 8.6804C16.0062 8.58804 16.2411 8.5393 16.4788 8.53708H16.4959C16.7353 8.53696 16.9722 8.584 17.1924 8.67536C17.4126 8.76672 17.6114 8.90051 17.7769 9.06865C17.9425 9.23679 18.0712 9.4358 18.1555 9.65367C18.2398 9.87153 18.2778 10.1037 18.2672 10.3363L18.2704 10.3315Z" fill="#C60707"/>
</svg>
