<svg width="21" height="20" viewBox="0 0 21 20" fill="none" xmlns="http://www.w3.org/2000/svg">
<path d="M16.0816 14.2131L20.3781 18.3768L18.9586 19.7527L14.6631 15.5881C13.0648 16.83 11.0768 17.5055 9.02839 17.5027C4.04472 17.5027 0 13.5821 0 8.75134C0 3.9206 4.04472 0 9.02839 0C14.0121 0 18.0568 3.9206 18.0568 8.75134C18.0597 10.7369 17.3628 12.6639 16.0816 14.2131ZM14.0692 13.4916C15.3421 12.2224 16.053 10.5214 16.0505 8.75134C16.0505 4.99118 12.9076 1.94474 9.02839 1.94474C5.14919 1.94474 2.00631 4.99118 2.00631 8.75134C2.00631 12.5115 5.14919 15.5579 9.02839 15.5579C10.8545 15.5604 12.6094 14.8713 13.9188 13.6375L14.0692 13.4916Z" fill="#989595"/>
</svg>
