<svg width="26" height="26" viewBox="0 0 26 26" fill="none" xmlns="http://www.w3.org/2000/svg">
<path d="M17.9435 14.777C18.2234 14.777 18.4919 14.6658 18.6899 14.4679C18.8878 14.2699 18.999 14.0014 18.999 13.7215C18.999 13.4416 18.8878 13.1731 18.6899 12.9751C18.4919 12.7772 18.2234 12.666 17.9435 12.666C17.6636 12.666 17.3951 12.7772 17.1972 12.9751C16.9992 13.1731 16.888 13.4416 16.888 13.7215C16.888 14.0014 16.9992 14.2699 17.1972 14.4679C17.3951 14.6658 17.6636 14.777 17.9435 14.777ZM17.9435 18.999C18.2234 18.999 18.4919 18.8878 18.6899 18.6899C18.8878 18.4919 18.999 18.2234 18.999 17.9435C18.999 17.6636 18.8878 17.3951 18.6899 17.1971C18.4919 16.9992 18.2234 16.888 17.9435 16.888C17.6636 16.888 17.3951 16.9992 17.1972 17.1971C16.9992 17.3951 16.888 17.6636 16.888 17.9435C16.888 18.2234 16.9992 18.4919 17.1972 18.6899C17.3951 18.8878 17.6636 18.999 17.9435 18.999ZM13.7215 13.7215C13.7215 14.0014 13.6103 14.2699 13.4124 14.4679C13.2144 14.6658 12.9459 14.777 12.666 14.777C12.3861 14.777 12.1176 14.6658 11.9197 14.4679C11.7217 14.2699 11.6105 14.0014 11.6105 13.7215C11.6105 13.4416 11.7217 13.1731 11.9197 12.9751C12.1176 12.7772 12.3861 12.666 12.666 12.666C12.9459 12.666 13.2144 12.7772 13.4124 12.9751C13.6103 13.1731 13.7215 13.4416 13.7215 13.7215ZM13.7215 17.9435C13.7215 18.2234 13.6103 18.4919 13.4124 18.6899C13.2144 18.8878 12.9459 18.999 12.666 18.999C12.3861 18.999 12.1176 18.8878 11.9197 18.6899C11.7217 18.4919 11.6105 18.2234 11.6105 17.9435C11.6105 17.6636 11.7217 17.3951 11.9197 17.1971C12.1176 16.9992 12.3861 16.888 12.666 16.888C12.9459 16.888 13.2144 16.9992 13.4124 17.1971C13.6103 17.3951 13.7215 17.6636 13.7215 17.9435ZM7.38851 14.777C7.66844 14.777 7.93691 14.6658 8.13486 14.4679C8.3328 14.2699 8.44401 14.0014 8.44401 13.7215C8.44401 13.4416 8.3328 13.1731 8.13486 12.9751C7.93691 12.7772 7.66844 12.666 7.38851 12.666C7.10857 12.666 6.8401 12.7772 6.64216 12.9751C6.44421 13.1731 6.33301 13.4416 6.33301 13.7215C6.33301 14.0014 6.44421 14.2699 6.64216 14.4679C6.8401 14.6658 7.10857 14.777 7.38851 14.777ZM7.38851 18.999C7.66844 18.999 7.93691 18.8878 8.13486 18.6899C8.3328 18.4919 8.44401 18.2234 8.44401 17.9435C8.44401 17.6636 8.3328 17.3951 8.13486 17.1971C7.93691 16.9992 7.66844 16.888 7.38851 16.888C7.10857 16.888 6.8401 16.9992 6.64216 17.1971C6.44421 17.3951 6.33301 17.6636 6.33301 17.9435C6.33301 18.2234 6.44421 18.4919 6.64216 18.6899C6.8401 18.8878 7.10857 18.999 7.38851 18.999Z" fill="#7B7878"/>
<path fill-rule="evenodd" clip-rule="evenodd" d="M7.3885 1.84712C7.59846 1.84712 7.79981 1.93053 7.94827 2.07898C8.09673 2.22744 8.18013 2.4288 8.18013 2.63875V3.44409C8.87887 3.43037 9.64833 3.43037 10.4948 3.43037H14.8361C15.6837 3.43037 16.4531 3.43037 17.1519 3.44409V2.63875C17.1519 2.4288 17.2353 2.22744 17.3837 2.07898C17.5322 1.93053 17.7336 1.84712 17.9435 1.84712C18.1535 1.84712 18.3548 1.93053 18.5033 2.07898C18.6517 2.22744 18.7351 2.4288 18.7351 2.63875V3.51165C19.0096 3.53276 19.2696 3.5595 19.5151 3.59186C20.7522 3.75863 21.7539 4.10906 22.5444 4.89857C23.3339 5.68914 23.6844 6.69081 23.8511 7.92786C24.0126 9.13113 24.0126 10.6669 24.0126 12.6069V14.8361C24.0126 16.7761 24.0126 18.3129 23.8511 19.5151C23.6844 20.7522 23.3339 21.7539 22.5444 22.5444C21.7539 23.3339 20.7522 23.6844 19.5151 23.8511C18.3119 24.0126 16.7761 24.0126 14.8361 24.0126H10.497C8.55694 24.0126 7.02013 24.0126 5.81792 23.8511C4.58087 23.6844 3.5792 23.3339 2.78864 22.5444C1.99912 21.7539 1.6487 20.7522 1.48193 19.5151C1.32043 18.3119 1.32043 16.7761 1.32043 14.8361V12.6069C1.32043 10.6669 1.32043 9.13007 1.48193 7.92786C1.6487 6.69081 1.99912 5.68914 2.78864 4.89857C3.5792 4.10906 4.58087 3.75863 5.81792 3.59186C6.0642 3.5595 6.32421 3.53276 6.59793 3.51165V2.63875C6.59793 2.42898 6.68119 2.22778 6.82942 2.07936C6.97765 1.93093 7.17874 1.8474 7.3885 1.84712ZM6.02691 5.16139C4.96613 5.30388 4.35394 5.57198 3.90746 6.01846C3.46099 6.46493 3.19289 7.07713 3.0504 8.1379C3.02647 8.31734 3.00607 8.50698 2.98918 8.70682H22.3428C22.3259 8.50698 22.3055 8.31699 22.2816 8.13685C22.1391 7.07607 21.871 6.46388 21.4245 6.0174C20.9781 5.57093 20.3659 5.30283 19.304 5.16034C18.22 5.01468 16.7898 5.01257 14.777 5.01257H10.555C8.54217 5.01257 7.11302 5.01573 6.02691 5.16139ZM2.90263 12.666C2.90263 11.7646 2.90263 10.9804 2.91635 10.2911H22.4157C22.4294 10.9804 22.4294 11.7646 22.4294 12.666V14.777C22.4294 16.7898 22.4273 18.22 22.2816 19.3051C22.1391 20.3659 21.871 20.9781 21.4245 21.4245C20.9781 21.871 20.3659 22.1391 19.304 22.2816C18.22 22.4273 16.7898 22.4294 14.777 22.4294H10.555C8.54217 22.4294 7.11302 22.4273 6.02691 22.2816C4.96613 22.1391 4.35394 21.871 3.90746 21.4245C3.46099 20.9781 3.19289 20.3659 3.0504 19.304C2.90474 18.22 2.90263 16.7898 2.90263 14.777V12.666Z" fill="#7B7878"/>
</svg>
