<svg width="13" height="13" viewBox="0 0 13 13" fill="none" xmlns="http://www.w3.org/2000/svg">
<path d="M10.647 3.92926H1.521C1.31313 3.92926 1.14075 3.75688 1.14075 3.54901C1.14075 3.34114 1.31313 3.16876 1.521 3.16876H10.647C10.8548 3.16876 11.0272 3.34114 11.0272 3.54901C11.0272 3.75688 10.8548 3.92926 10.647 3.92926Z" fill="#00092E"/>
<path d="M9.12597 6.46423H3.04199C2.83412 6.46423 2.66174 6.29185 2.66174 6.08398C2.66174 5.87611 2.83412 5.70374 3.04199 5.70374H9.12597C9.33384 5.70374 9.50622 5.87611 9.50622 6.08398C9.50622 6.29185 9.33384 6.46423 9.12597 6.46423Z" fill="#00092E"/>
<path d="M7.09797 8.99921H5.06998C4.86211 8.99921 4.68973 8.82683 4.68973 8.61896C4.68973 8.41109 4.86211 8.23871 5.06998 8.23871H7.09797C7.30584 8.23871 7.47822 8.41109 7.47822 8.61896C7.47822 8.82683 7.30584 8.99921 7.09797 8.99921Z" fill="#00092E"/>
</svg>
