<svg width="170" height="151" viewBox="0 0 170 151" fill="none" xmlns="http://www.w3.org/2000/svg">
<path d="M155 75.3587C155 65.4625 152.995 55.6631 149.101 46.5202C145.206 37.3772 139.497 29.0698 132.301 22.0721C125.104 15.0744 116.561 9.52347 107.158 5.73634C97.7552 1.94921 87.6774 -1.6123e-06 77.5 0L77.5 36.91C82.6926 36.91 87.8344 37.9045 92.6318 39.8367C97.4291 41.769 101.788 44.6011 105.46 48.1714C109.132 51.7417 112.044 55.9802 114.031 60.645C116.018 65.3099 117.041 70.3096 117.041 75.3587H155Z" fill="#B87C4C"/>
<path d="M77.5 0C59.7932 -2.05317e-07 42.6204 5.89585 28.8391 16.7064C15.0578 27.5171 5.49907 42.5905 1.75364 59.4184L38.8535 67.2258C40.7644 58.6401 45.6414 50.9495 52.6727 45.4338C59.7041 39.9181 68.4658 36.91 77.5 36.91V0Z" fill="#EBD9D1"/>
<path d="M155 75.3587C155 85.9305 152.712 96.3839 148.286 106.04C143.86 115.696 137.393 124.338 129.307 131.405C121.222 138.472 111.697 143.806 101.353 147.059C91.0082 150.313 80.0755 151.414 69.2649 150.291C58.4544 149.167 48.0078 145.845 38.6041 140.539C29.2004 135.233 21.05 128.063 14.6825 119.494C8.315 110.925 3.8729 101.15 1.64485 90.8022C-0.583203 80.4548 -0.547344 69.7674 1.75009 59.4343L38.8517 67.234C37.6795 72.506 37.6612 77.9588 38.798 83.2381C39.9348 88.5174 42.2012 93.5051 45.4499 97.8771C48.6987 102.249 52.8571 105.907 57.6549 108.614C62.4528 111.321 67.7827 113.017 73.2984 113.59C78.8141 114.163 84.392 113.601 89.6698 111.941C94.9476 110.281 99.8072 107.56 103.933 103.954C108.058 100.348 111.357 95.9391 113.616 91.0125C115.874 86.086 117.041 80.7525 117.041 75.3587H155Z" fill="#A8BBA3"/>
<g filter="url(#filter0_d_3172_1290)">
<ellipse cx="141.625" cy="28.9897" rx="14.862" ry="13.9128" fill="#ECEAF8"/>
</g>
<path d="M131.594 32.3633V31.2517L134.191 28.8467C134.412 28.6329 134.598 28.4405 134.747 28.2695C134.899 28.0984 135.014 27.931 135.093 27.7671C135.171 27.6008 135.21 27.4215 135.21 27.2291C135.21 27.0153 135.162 26.8312 135.064 26.6768C134.967 26.52 134.834 26.4001 134.665 26.317C134.497 26.2314 134.305 26.1887 134.092 26.1887C133.868 26.1887 133.674 26.2338 133.507 26.3241C133.341 26.4143 133.213 26.5438 133.122 26.7124C133.032 26.8811 132.987 27.0818 132.987 27.3146H131.523C131.523 26.8371 131.631 26.4227 131.847 26.0711C132.063 25.7196 132.366 25.4476 132.755 25.2552C133.145 25.0628 133.594 24.9666 134.102 24.9666C134.625 24.9666 135.08 25.0592 135.467 25.2445C135.856 25.4274 136.159 25.6816 136.375 26.007C136.592 26.3324 136.7 26.7053 136.7 27.1257C136.7 27.4013 136.645 27.6733 136.536 27.9417C136.429 28.2101 136.238 28.5082 135.962 28.836C135.687 29.1614 135.298 29.5521 134.797 30.0082L133.732 31.0521V31.102H136.796V32.3633H131.594ZM140.775 32.5236C140.162 32.5213 139.635 32.3704 139.193 32.0711C138.753 31.7719 138.415 31.3384 138.177 30.7707C137.942 30.203 137.826 29.5201 137.828 28.722C137.828 27.9262 137.946 27.2481 138.181 26.6875C138.419 26.1269 138.757 25.7006 139.196 25.4084C139.638 25.1139 140.164 24.9666 140.775 24.9666C141.385 24.9666 141.91 25.1139 142.35 25.4084C142.791 25.7029 143.131 26.1305 143.369 26.6911C143.606 27.2493 143.724 27.9262 143.721 28.722C143.721 29.5224 143.603 30.2065 143.365 30.7742C143.13 31.3419 142.793 31.7754 142.353 32.0747C141.914 32.374 141.388 32.5236 140.775 32.5236ZM140.775 31.2445C141.193 31.2445 141.527 31.0343 141.776 30.6139C142.025 30.1935 142.149 29.5628 142.147 28.722C142.147 28.1685 142.09 27.7077 141.976 27.3395C141.864 26.9714 141.705 26.6946 141.498 26.5094C141.294 26.3241 141.053 26.2314 140.775 26.2314C140.359 26.2314 140.027 26.4393 139.777 26.855C139.528 27.2706 139.402 27.893 139.4 28.722C139.4 29.2825 139.455 29.7505 139.567 30.1258C139.681 30.4987 139.841 30.779 140.048 30.9666C140.255 31.1519 140.497 31.2445 140.775 31.2445ZM148.816 30.9951V30.6103C148.816 30.3182 148.877 30.0498 149.001 29.8051C149.127 29.5581 149.308 29.3609 149.546 29.2136C149.786 29.064 150.078 28.9892 150.422 28.9892C150.772 28.9892 151.065 29.0628 151.303 29.2101C151.542 29.3574 151.723 29.5545 151.844 29.8015C151.968 30.0462 152.029 30.3158 152.029 30.6103V30.9951C152.029 31.2873 151.968 31.5569 151.844 31.8039C151.721 32.0486 151.539 32.2445 151.299 32.3918C151.059 32.5415 150.767 32.6163 150.422 32.6163C150.073 32.6163 149.78 32.5415 149.542 32.3918C149.305 32.2445 149.124 32.0486 149.001 31.8039C148.877 31.5569 148.816 31.2873 148.816 30.9951ZM149.852 30.6103V30.9951C149.852 31.1638 149.893 31.3229 149.974 31.4726C150.057 31.6222 150.206 31.697 150.422 31.697C150.639 31.697 150.786 31.6234 150.864 31.4761C150.945 31.3289 150.985 31.1685 150.985 30.9951V30.6103C150.985 30.4369 150.947 30.2754 150.871 30.1258C150.795 29.9761 150.646 29.9013 150.422 29.9013C150.209 29.9013 150.06 29.9761 149.977 30.1258C149.894 30.2754 149.852 30.4369 149.852 30.6103ZM145.071 26.8193V26.4345C145.071 26.14 145.134 25.8704 145.26 25.6257C145.386 25.3787 145.567 25.1816 145.805 25.0343C146.045 24.887 146.335 24.8134 146.674 24.8134C147.026 24.8134 147.32 24.887 147.558 25.0343C147.795 25.1816 147.976 25.3787 148.099 25.6257C148.223 25.8704 148.285 26.14 148.285 26.4345V26.8193C148.285 27.1139 148.222 27.3835 148.096 27.6281C147.972 27.8728 147.791 28.0687 147.551 28.216C147.313 28.3609 147.021 28.4334 146.674 28.4334C146.327 28.4334 146.034 28.3597 145.794 28.2125C145.557 28.0628 145.376 27.8668 145.253 27.6246C145.131 27.3799 145.071 27.1115 145.071 26.8193ZM146.115 26.4345V26.8193C146.115 26.9927 146.155 27.1531 146.236 27.3003C146.319 27.4476 146.465 27.5212 146.674 27.5212C146.893 27.5212 147.041 27.4476 147.12 27.3003C147.2 27.1531 147.241 26.9927 147.241 26.8193V26.4345C147.241 26.2611 147.203 26.0996 147.127 25.95C147.051 25.8003 146.9 25.7255 146.674 25.7255C146.463 25.7255 146.317 25.8015 146.236 25.9535C146.155 26.1055 146.115 26.2659 146.115 26.4345ZM145.541 32.3633L150.558 25.0663H151.491L146.475 32.3633H145.541Z" fill="black"/>
<g filter="url(#filter1_d_3172_1290)">
<ellipse cx="26.8566" cy="20.6654" rx="14.862" ry="13.9128" fill="#ECEAF8"/>
</g>
<path d="M16.5927 24.5852V23.4735L19.1901 21.0685C19.411 20.8547 19.5963 20.6623 19.7459 20.4913C19.8979 20.3203 20.0131 20.1528 20.0915 19.9889C20.1699 19.8227 20.2091 19.6433 20.2091 19.4509C20.2091 19.2372 20.1604 19.0531 20.063 18.8987C19.9656 18.7419 19.8326 18.622 19.664 18.5388C19.4953 18.4533 19.3041 18.4105 19.0903 18.4105C18.867 18.4105 18.6723 18.4557 18.506 18.5459C18.3397 18.6362 18.2114 18.7657 18.1212 18.9343C18.0309 19.103 17.9858 19.3037 17.9858 19.5364H16.5214C16.5214 19.059 16.6295 18.6445 16.8456 18.293C17.0618 17.9414 17.3647 17.6694 17.7542 17.477C18.1438 17.2846 18.5927 17.1884 19.101 17.1884C19.6236 17.1884 20.0784 17.2811 20.4656 17.4664C20.8552 17.6493 21.158 17.9034 21.3742 18.2288C21.5903 18.5543 21.6984 18.9272 21.6984 19.3476C21.6984 19.6231 21.6438 19.8951 21.5345 20.1635C21.4276 20.4319 21.2364 20.73 20.9609 21.0578C20.6853 21.3833 20.297 21.774 19.7958 22.2301L18.7305 23.274V23.3239H21.7946V24.5852H16.5927ZM25.7736 24.7455C25.1607 24.7431 24.6334 24.5923 24.1916 24.293C23.7522 23.9937 23.4137 23.5602 23.1762 22.9925C22.941 22.4248 22.8246 21.7419 22.827 20.9438C22.827 20.1481 22.9446 19.4699 23.1797 18.9094C23.4172 18.3488 23.7557 17.9224 24.1952 17.6303C24.637 17.3357 25.1631 17.1884 25.7736 17.1884C26.384 17.1884 26.909 17.3357 27.3484 17.6303C27.7902 17.9248 28.1299 18.3524 28.3674 18.9129C28.6049 19.4711 28.7225 20.1481 28.7201 20.9438C28.7201 21.7443 28.6014 22.4284 28.3638 22.9961C28.1287 23.5638 27.7914 23.9973 27.352 24.2966C26.9125 24.5959 26.3864 24.7455 25.7736 24.7455ZM25.7736 23.4664C26.1916 23.4664 26.5253 23.2562 26.7748 22.8358C27.0242 22.4153 27.1477 21.7847 27.1453 20.9438C27.1453 20.3904 27.0883 19.9296 26.9743 19.5614C26.8626 19.1932 26.7035 18.9165 26.4968 18.7312C26.2926 18.5459 26.0515 18.4533 25.7736 18.4533C25.3579 18.4533 25.0253 18.6611 24.7759 19.0768C24.5265 19.4925 24.4006 20.1148 24.3983 20.9438C24.3983 21.5044 24.4541 21.9723 24.5657 22.3476C24.6797 22.7206 24.8401 23.0008 25.0467 23.1885C25.2534 23.3738 25.4956 23.4664 25.7736 23.4664ZM33.8143 23.217V22.8322C33.8143 22.54 33.876 22.2716 33.9996 22.027C34.1255 21.7799 34.3072 21.5828 34.5447 21.4355C34.7846 21.2859 35.0768 21.211 35.4212 21.211C35.7704 21.211 36.0637 21.2847 36.3012 21.4319C36.5411 21.5792 36.7217 21.7764 36.8428 22.0234C36.9663 22.2681 37.0281 22.5377 37.0281 22.8322V23.217C37.0281 23.5092 36.9663 23.7788 36.8428 24.0258C36.7193 24.2704 36.5376 24.4664 36.2977 24.6137C36.0578 24.7633 35.7656 24.8381 35.4212 24.8381C35.072 24.8381 34.7787 24.7633 34.5411 24.6137C34.3036 24.4664 34.1231 24.2704 33.9996 24.0258C33.876 23.7788 33.8143 23.5092 33.8143 23.217ZM34.8511 22.8322V23.217C34.8511 23.3856 34.8915 23.5448 34.9723 23.6944C35.0554 23.8441 35.205 23.9189 35.4212 23.9189C35.6373 23.9189 35.7846 23.8453 35.863 23.698C35.9438 23.5507 35.9841 23.3904 35.9841 23.217V22.8322C35.9841 22.6588 35.9461 22.4973 35.8701 22.3476C35.7941 22.198 35.6445 22.1232 35.4212 22.1232C35.2074 22.1232 35.059 22.198 34.9758 22.3476C34.8927 22.4973 34.8511 22.6588 34.8511 22.8322ZM30.0696 19.0412V18.6564C30.0696 18.3619 30.1326 18.0923 30.2584 17.8476C30.3843 17.6006 30.566 17.4034 30.8036 17.2561C31.0435 17.1089 31.3333 17.0352 31.6729 17.0352C32.0245 17.0352 32.319 17.1089 32.5566 17.2561C32.7941 17.4034 32.9746 17.6006 33.0981 17.8476C33.2216 18.0923 33.2834 18.3619 33.2834 18.6564V19.0412C33.2834 19.3357 33.2205 19.6053 33.0946 19.85C32.9711 20.0946 32.7893 20.2906 32.5494 20.4379C32.3119 20.5828 32.0197 20.6552 31.6729 20.6552C31.3261 20.6552 31.0328 20.5816 30.7929 20.4343C30.5554 20.2847 30.3748 20.0887 30.2513 19.8464C30.1302 19.6018 30.0696 19.3334 30.0696 19.0412ZM31.1136 18.6564V19.0412C31.1136 19.2146 31.1539 19.3749 31.2347 19.5222C31.3178 19.6695 31.4639 19.7431 31.6729 19.7431C31.8915 19.7431 32.0399 19.6695 32.1183 19.5222C32.1991 19.3749 32.2395 19.2146 32.2395 19.0412V18.6564C32.2395 18.483 32.2015 18.3215 32.1254 18.1718C32.0494 18.0222 31.8986 17.9474 31.6729 17.9474C31.4615 17.9474 31.3155 18.0234 31.2347 18.1754C31.1539 18.3274 31.1136 18.4877 31.1136 18.6564ZM30.5399 24.5852L35.5566 17.2882H36.4901L31.4734 24.5852H30.5399Z" fill="black"/>
<g filter="url(#filter2_d_3172_1290)">
<ellipse cx="35.8294" cy="134.433" rx="14.862" ry="13.9128" fill="#ECEAF8"/>
</g>
<path d="M28.3913 138.456C28.016 138.454 27.6537 138.391 27.3046 138.267C26.9578 138.144 26.6466 137.943 26.3711 137.665C26.0955 137.387 25.877 137.019 25.7155 136.561C25.5563 136.102 25.4768 135.539 25.4768 134.872C25.4791 134.259 25.5492 133.711 25.687 133.229C25.8271 132.745 26.0267 132.334 26.2856 131.996C26.5468 131.659 26.8592 131.403 27.2226 131.227C27.586 131.049 27.9934 130.96 28.4447 130.96C28.9317 130.96 29.3616 131.055 29.7345 131.245C30.1074 131.432 30.4067 131.688 30.6324 132.011C30.8604 132.334 30.9982 132.696 31.0457 133.097H29.5243C29.4649 132.843 29.3402 132.644 29.1502 132.499C28.9602 132.354 28.725 132.282 28.4447 132.282C27.9697 132.282 27.6086 132.488 27.3616 132.901C27.1169 133.315 26.9922 133.877 26.9875 134.587H27.0373C27.1466 134.371 27.2939 134.187 27.4792 134.035C27.6668 133.88 27.8794 133.763 28.1169 133.682C28.3568 133.599 28.6098 133.557 28.8758 133.557C29.3081 133.557 29.6929 133.659 30.0302 133.863C30.3675 134.065 30.6336 134.343 30.8283 134.697C31.0231 135.051 31.1205 135.456 31.1205 135.912C31.1205 136.406 31.0053 136.846 30.7749 137.23C30.5469 137.615 30.2274 137.917 29.8165 138.135C29.4079 138.352 28.9328 138.459 28.3913 138.456ZM28.3842 137.245C28.6217 137.245 28.8343 137.188 29.0219 137.074C29.2096 136.96 29.3568 136.805 29.4637 136.611C29.5706 136.416 29.6241 136.197 29.6241 135.955C29.6241 135.713 29.5706 135.495 29.4637 135.303C29.3592 135.111 29.2143 134.957 29.029 134.843C28.8438 134.729 28.6324 134.672 28.3948 134.672C28.2167 134.672 28.0516 134.706 27.8996 134.772C27.7499 134.839 27.6181 134.931 27.5041 135.05C27.3925 135.169 27.3046 135.306 27.2404 135.463C27.1763 135.618 27.1442 135.783 27.1442 135.959C27.1442 136.194 27.1977 136.409 27.3046 136.603C27.4138 136.798 27.5611 136.954 27.7464 137.07C27.934 137.187 28.1466 137.245 28.3842 137.245ZM35.0754 138.517C34.4626 138.514 33.9353 138.364 33.4934 138.064C33.054 137.765 32.7155 137.331 32.478 136.764C32.2428 136.196 32.1265 135.513 32.1288 134.715C32.1288 133.919 32.2464 133.241 32.4816 132.681C32.7191 132.12 33.0576 131.694 33.497 131.401C33.9388 131.107 34.465 130.96 35.0754 130.96C35.6859 130.96 36.2108 131.107 36.6502 131.401C37.092 131.696 37.4317 132.124 37.6692 132.684C37.9068 133.242 38.0244 133.919 38.022 134.715C38.022 135.516 37.9032 136.2 37.6657 136.767C37.4305 137.335 37.0932 137.768 36.6538 138.068C36.2144 138.367 35.6882 138.517 35.0754 138.517ZM35.0754 137.238C35.4935 137.238 35.8272 137.027 36.0766 136.607C36.326 136.187 36.4495 135.556 36.4472 134.715C36.4472 134.162 36.3901 133.701 36.2761 133.333C36.1645 132.964 36.0053 132.688 35.7987 132.502C35.5944 132.317 35.3533 132.225 35.0754 132.225C34.6597 132.225 34.3272 132.432 34.0778 132.848C33.8284 133.264 33.7025 133.886 33.7001 134.715C33.7001 135.276 33.7559 135.744 33.8676 136.119C33.9816 136.492 34.1419 136.772 34.3486 136.96C34.5552 137.145 34.7975 137.238 35.0754 137.238ZM43.1161 136.988V136.603C43.1161 136.311 43.1779 136.043 43.3014 135.798C43.4273 135.551 43.609 135.354 43.8465 135.207C44.0865 135.057 44.3786 134.982 44.723 134.982C45.0722 134.982 45.3656 135.056 45.6031 135.203C45.843 135.35 46.0235 135.548 46.1447 135.795C46.2682 136.039 46.3299 136.309 46.3299 136.603V136.988C46.3299 137.28 46.2682 137.55 46.1447 137.797C46.0211 138.042 45.8394 138.238 45.5995 138.385C45.3596 138.535 45.0675 138.609 44.723 138.609C44.3739 138.609 44.0805 138.535 43.843 138.385C43.6055 138.238 43.4249 138.042 43.3014 137.797C43.1779 137.55 43.1161 137.28 43.1161 136.988ZM44.153 136.603V136.988C44.153 137.157 44.1933 137.316 44.2741 137.466C44.3572 137.615 44.5069 137.69 44.723 137.69C44.9392 137.69 45.0865 137.616 45.1648 137.469C45.2456 137.322 45.286 137.162 45.286 136.988V136.603C45.286 136.43 45.248 136.268 45.172 136.119C45.096 135.969 44.9463 135.894 44.723 135.894C44.5093 135.894 44.3608 135.969 44.2777 136.119C44.1945 136.268 44.153 136.43 44.153 136.603ZM39.3715 132.812V132.428C39.3715 132.133 39.4344 131.863 39.5603 131.619C39.6862 131.372 39.8679 131.175 40.1054 131.027C40.3453 130.88 40.6351 130.806 40.9748 130.806C41.3263 130.806 41.6209 130.88 41.8584 131.027C42.0959 131.175 42.2765 131.372 42.4 131.619C42.5235 131.863 42.5853 132.133 42.5853 132.428V132.812C42.5853 133.107 42.5223 133.377 42.3964 133.621C42.2729 133.866 42.0912 134.062 41.8513 134.209C41.6138 134.354 41.3216 134.426 40.9748 134.426C40.628 134.426 40.3346 134.353 40.0947 134.206C39.8572 134.056 39.6767 133.86 39.5532 133.618C39.432 133.373 39.3715 133.105 39.3715 132.812ZM40.4154 132.428V132.812C40.4154 132.986 40.4558 133.146 40.5365 133.293C40.6197 133.441 40.7658 133.514 40.9748 133.514C41.1933 133.514 41.3418 133.441 41.4202 133.293C41.5009 133.146 41.5413 132.986 41.5413 132.812V132.428C41.5413 132.254 41.5033 132.093 41.4273 131.943C41.3513 131.793 41.2004 131.719 40.9748 131.719C40.7634 131.719 40.6173 131.795 40.5365 131.947C40.4558 132.099 40.4154 132.259 40.4154 132.428ZM39.8418 138.356L44.8584 131.059H45.7919L40.7753 138.356H39.8418Z" fill="black"/>
<defs>
<filter id="filter0_d_3172_1290" x="124.756" y="13.0702" width="33.7373" height="31.839" filterUnits="userSpaceOnUse" color-interpolation-filters="sRGB">
<feFlood flood-opacity="0" result="BackgroundImageFix"/>
<feColorMatrix in="SourceAlpha" type="matrix" values="0 0 0 0 0 0 0 0 0 0 0 0 0 0 0 0 0 0 127 0" result="hardAlpha"/>
<feOffset/>
<feGaussianBlur stdDeviation="1.00333"/>
<feComposite in2="hardAlpha" operator="out"/>
<feColorMatrix type="matrix" values="0 0 0 0 0 0 0 0 0 0 0 0 0 0 0 0 0 0 0.25 0"/>
<feBlend mode="normal" in2="BackgroundImageFix" result="effect1_dropShadow_3172_1290"/>
<feBlend mode="normal" in="SourceGraphic" in2="effect1_dropShadow_3172_1290" result="shape"/>
</filter>
<filter id="filter1_d_3172_1290" x="9.98796" y="4.74593" width="33.7373" height="31.839" filterUnits="userSpaceOnUse" color-interpolation-filters="sRGB">
<feFlood flood-opacity="0" result="BackgroundImageFix"/>
<feColorMatrix in="SourceAlpha" type="matrix" values="0 0 0 0 0 0 0 0 0 0 0 0 0 0 0 0 0 0 127 0" result="hardAlpha"/>
<feOffset/>
<feGaussianBlur stdDeviation="1.00333"/>
<feComposite in2="hardAlpha" operator="out"/>
<feColorMatrix type="matrix" values="0 0 0 0 0 0 0 0 0 0 0 0 0 0 0 0 0 0 0.25 0"/>
<feBlend mode="normal" in2="BackgroundImageFix" result="effect1_dropShadow_3172_1290"/>
<feBlend mode="normal" in="SourceGraphic" in2="effect1_dropShadow_3172_1290" result="shape"/>
</filter>
<filter id="filter2_d_3172_1290" x="18.9607" y="118.514" width="33.7373" height="31.839" filterUnits="userSpaceOnUse" color-interpolation-filters="sRGB">
<feFlood flood-opacity="0" result="BackgroundImageFix"/>
<feColorMatrix in="SourceAlpha" type="matrix" values="0 0 0 0 0 0 0 0 0 0 0 0 0 0 0 0 0 0 127 0" result="hardAlpha"/>
<feOffset/>
<feGaussianBlur stdDeviation="1.00333"/>
<feComposite in2="hardAlpha" operator="out"/>
<feColorMatrix type="matrix" values="0 0 0 0 0 0 0 0 0 0 0 0 0 0 0 0 0 0 0.25 0"/>
<feBlend mode="normal" in2="BackgroundImageFix" result="effect1_dropShadow_3172_1290"/>
<feBlend mode="normal" in="SourceGraphic" in2="effect1_dropShadow_3172_1290" result="shape"/>
</filter>
</defs>
</svg>
