<svg width="35" height="34" viewBox="0 0 35 34" fill="none" xmlns="http://www.w3.org/2000/svg">
<path d="M17.3707 0C7.81681 0 0 7.60084 0 16.8908C0 26.1807 7.81681 33.7815 17.3707 33.7815C26.9246 33.7815 34.7414 26.1807 34.7414 16.8908C34.7414 7.60084 26.9246 0 17.3707 0ZM17.3707 30.4034C9.71022 30.4034 3.47414 24.3396 3.47414 16.8908C3.47414 9.44193 9.71022 3.37815 17.3707 3.37815C25.0312 3.37815 31.2672 9.44193 31.2672 16.8908C31.2672 24.3396 25.0312 30.4034 17.3707 30.4034ZM25.3438 9.42504L13.8966 20.556L9.39754 16.1982L6.94828 18.5798L13.8966 25.3361L27.7931 11.8235L25.3438 9.42504Z" fill="#488A3E"/>
</svg>
